G04 (created by PCBNEW (2013-jul-07)-stable) date ven. 16 mai 2014 11:53:41 CEST*
%MOIN*%
G04 Gerber Fmt 3.4, Leading zero omitted, Abs format*
%FSLAX34Y34*%
G01*
G70*
G90*
G04 APERTURE LIST*
%ADD10C,0.00590551*%
%ADD11C,0.011811*%
%ADD12C,0.00787402*%
%ADD13C,0.23622*%
%ADD14C,0.019685*%
%ADD15C,0.015*%
%ADD16C,0.005*%
%ADD17C,0.0047*%
%ADD18C,0.0031*%
G04 APERTURE END LIST*
G54D10*
G54D11*
X48685Y-48288D02*
X49180Y-48183D01*
X48820Y-47949D02*
X48812Y-48882D01*
X49178Y-48494D02*
X48682Y-48599D01*
X49043Y-48833D02*
X49051Y-47900D01*
X49510Y-48596D02*
X49362Y-47903D01*
X49527Y-47867D01*
X49633Y-47879D01*
X49713Y-47931D01*
X49761Y-47990D01*
X49822Y-48115D01*
X49843Y-48214D01*
X49838Y-48354D01*
X49819Y-48427D01*
X49767Y-48507D01*
X49675Y-48561D01*
X49510Y-48596D01*
X50203Y-48448D02*
X50105Y-47986D01*
X50056Y-47755D02*
X50030Y-47795D01*
X50070Y-47821D01*
X50096Y-47781D01*
X50056Y-47755D01*
X50070Y-47821D01*
X50732Y-47853D02*
X50851Y-48414D01*
X50832Y-48487D01*
X50806Y-48527D01*
X50747Y-48574D01*
X50648Y-48595D01*
X50575Y-48576D01*
X50823Y-48282D02*
X50764Y-48329D01*
X50632Y-48357D01*
X50559Y-48338D01*
X50519Y-48312D01*
X50472Y-48253D01*
X50430Y-48055D01*
X50449Y-47982D01*
X50475Y-47942D01*
X50534Y-47895D01*
X50666Y-47867D01*
X50739Y-47886D01*
X51160Y-48245D02*
X51062Y-47783D01*
X51013Y-47552D02*
X50987Y-47592D01*
X51027Y-47618D01*
X51053Y-47578D01*
X51013Y-47552D01*
X51027Y-47618D01*
X51713Y-47437D02*
X51640Y-47418D01*
X51541Y-47439D01*
X51449Y-47494D01*
X51397Y-47574D01*
X51378Y-47647D01*
X51373Y-47786D01*
X51394Y-47885D01*
X51455Y-48010D01*
X51502Y-48069D01*
X51582Y-48121D01*
X51688Y-48133D01*
X51754Y-48119D01*
X51846Y-48065D01*
X51872Y-48025D01*
X51823Y-47793D01*
X51691Y-47822D01*
X52183Y-48027D02*
X52085Y-47565D01*
X52113Y-47697D02*
X52132Y-47624D01*
X52158Y-47584D01*
X52217Y-47537D01*
X52283Y-47523D01*
X52870Y-47847D02*
X52811Y-47894D01*
X52679Y-47922D01*
X52605Y-47903D01*
X52558Y-47844D01*
X52502Y-47580D01*
X52521Y-47507D01*
X52580Y-47460D01*
X52712Y-47432D01*
X52785Y-47451D01*
X52832Y-47510D01*
X52846Y-47576D01*
X52530Y-47712D01*
X44203Y-47919D02*
X44835Y-47785D01*
X44368Y-47453D02*
X44378Y-48745D01*
X44839Y-48215D02*
X44206Y-48350D01*
X44673Y-48682D02*
X44663Y-47390D01*
X45754Y-48165D02*
X45721Y-48219D01*
X45604Y-48292D01*
X45520Y-48310D01*
X45384Y-48291D01*
X45280Y-48217D01*
X45218Y-48135D01*
X45137Y-47960D01*
X45108Y-47823D01*
X45111Y-47630D01*
X45134Y-47530D01*
X45199Y-47420D01*
X45315Y-47347D01*
X45400Y-47329D01*
X45536Y-47348D01*
X45588Y-47385D01*
X46480Y-48058D02*
X46406Y-48122D01*
X46237Y-48158D01*
X46143Y-48130D01*
X46081Y-48047D01*
X46003Y-47680D01*
X46026Y-47580D01*
X46101Y-47516D01*
X46269Y-47480D01*
X46363Y-47508D01*
X46425Y-47591D01*
X46445Y-47682D01*
X46042Y-47864D01*
X47155Y-47292D02*
X47291Y-47934D01*
X46775Y-47372D02*
X46883Y-47877D01*
X46944Y-47959D01*
X47038Y-47987D01*
X47165Y-47961D01*
X47240Y-47897D01*
X47272Y-47842D01*
X47629Y-47862D02*
X47956Y-47121D01*
X47492Y-47220D02*
X48093Y-47763D01*
X49040Y-47658D02*
X48946Y-47630D01*
X48842Y-47556D01*
X48686Y-47445D01*
X48592Y-47417D01*
X48508Y-47435D01*
X48599Y-47656D02*
X48505Y-47628D01*
X48401Y-47554D01*
X48320Y-47380D01*
X48252Y-47059D01*
X48255Y-46866D01*
X48320Y-46757D01*
X48394Y-46693D01*
X48563Y-46657D01*
X48657Y-46685D01*
X48761Y-46759D01*
X48842Y-46933D01*
X48910Y-47254D01*
X48907Y-47446D01*
X48842Y-47556D01*
X48768Y-47620D01*
X48599Y-47656D01*
X49601Y-46772D02*
X49738Y-47414D01*
X49222Y-46852D02*
X49329Y-47357D01*
X49391Y-47440D01*
X49485Y-47467D01*
X49611Y-47441D01*
X49686Y-47377D01*
X49718Y-47322D01*
X50159Y-47324D02*
X50023Y-46682D01*
X49955Y-46361D02*
X49922Y-46416D01*
X49974Y-46453D01*
X50007Y-46398D01*
X49955Y-46361D01*
X49974Y-46453D01*
X50769Y-46667D02*
X50474Y-46730D01*
X50581Y-47234D02*
X50377Y-46272D01*
X50798Y-46182D01*
X51467Y-47046D02*
X51373Y-47018D01*
X51321Y-46981D01*
X51259Y-46899D01*
X51201Y-46623D01*
X51224Y-46523D01*
X51256Y-46468D01*
X51331Y-46404D01*
X51457Y-46377D01*
X51551Y-46405D01*
X51603Y-46442D01*
X51665Y-46525D01*
X51723Y-46800D01*
X51701Y-46901D01*
X51668Y-46955D01*
X51594Y-47019D01*
X51467Y-47046D01*
X52005Y-46261D02*
X52142Y-46903D01*
X52025Y-46352D02*
X52057Y-46298D01*
X52132Y-46234D01*
X52258Y-46207D01*
X52353Y-46235D01*
X52414Y-46318D01*
X52521Y-46822D01*
X52680Y-46117D02*
X53018Y-46046D01*
X52739Y-45770D02*
X52914Y-46595D01*
X52976Y-46677D01*
X53070Y-46705D01*
X53154Y-46687D01*
G54D12*
X68897Y-41732D02*
X62598Y-41732D01*
X62598Y-38188D02*
X68897Y-38188D01*
X68897Y-38188D02*
X68897Y-41732D01*
X65748Y-38188D02*
X65748Y-41732D01*
X62598Y-41732D02*
X62598Y-38188D01*
G54D11*
X66394Y-39215D02*
X66507Y-39215D01*
X66563Y-39243D01*
X66619Y-39299D01*
X66647Y-39412D01*
X66647Y-39609D01*
X66619Y-39721D01*
X66563Y-39777D01*
X66507Y-39805D01*
X66394Y-39805D01*
X66338Y-39777D01*
X66282Y-39721D01*
X66254Y-39609D01*
X66254Y-39412D01*
X66282Y-39299D01*
X66338Y-39243D01*
X66394Y-39215D01*
X66901Y-39805D02*
X66901Y-39215D01*
X67125Y-39215D01*
X67182Y-39243D01*
X67210Y-39271D01*
X67238Y-39327D01*
X67238Y-39412D01*
X67210Y-39468D01*
X67182Y-39496D01*
X67125Y-39524D01*
X66901Y-39524D01*
X67491Y-39496D02*
X67688Y-39496D01*
X67772Y-39805D02*
X67491Y-39805D01*
X67491Y-39215D01*
X67772Y-39215D01*
X68025Y-39805D02*
X68025Y-39215D01*
X68363Y-39805D01*
X68363Y-39215D01*
X66437Y-40750D02*
X66437Y-40160D01*
X66577Y-40160D01*
X66661Y-40188D01*
X66718Y-40244D01*
X66746Y-40300D01*
X66774Y-40413D01*
X66774Y-40497D01*
X66746Y-40610D01*
X66718Y-40666D01*
X66661Y-40722D01*
X66577Y-40750D01*
X66437Y-40750D01*
X66999Y-40582D02*
X67280Y-40582D01*
X66943Y-40750D02*
X67140Y-40160D01*
X67336Y-40750D01*
X67449Y-40160D02*
X67786Y-40160D01*
X67618Y-40750D02*
X67618Y-40160D01*
X67955Y-40582D02*
X68236Y-40582D01*
X67899Y-40750D02*
X68096Y-40160D01*
X68293Y-40750D01*
G54D13*
X64566Y-47834D02*
X67125Y-47834D01*
G54D11*
X63695Y-46302D02*
X63695Y-45711D01*
X63920Y-45711D01*
X63976Y-45739D01*
X64004Y-45767D01*
X64032Y-45823D01*
X64032Y-45908D01*
X64004Y-45964D01*
X63976Y-45992D01*
X63920Y-46020D01*
X63695Y-46020D01*
X64623Y-46245D02*
X64595Y-46273D01*
X64510Y-46302D01*
X64454Y-46302D01*
X64370Y-46273D01*
X64313Y-46217D01*
X64285Y-46161D01*
X64257Y-46048D01*
X64257Y-45964D01*
X64285Y-45852D01*
X64313Y-45795D01*
X64370Y-45739D01*
X64454Y-45711D01*
X64510Y-45711D01*
X64595Y-45739D01*
X64623Y-45767D01*
X65073Y-45992D02*
X65157Y-46020D01*
X65185Y-46048D01*
X65213Y-46105D01*
X65213Y-46189D01*
X65185Y-46245D01*
X65157Y-46273D01*
X65101Y-46302D01*
X64876Y-46302D01*
X64876Y-45711D01*
X65073Y-45711D01*
X65129Y-45739D01*
X65157Y-45767D01*
X65185Y-45823D01*
X65185Y-45880D01*
X65157Y-45936D01*
X65129Y-45964D01*
X65073Y-45992D01*
X64876Y-45992D01*
X65916Y-45908D02*
X65916Y-46302D01*
X65916Y-45964D02*
X65944Y-45936D01*
X66001Y-45908D01*
X66085Y-45908D01*
X66141Y-45936D01*
X66169Y-45992D01*
X66169Y-46302D01*
X66535Y-45711D02*
X66479Y-45739D01*
X66451Y-45795D01*
X66479Y-45852D01*
X66535Y-45880D01*
X66591Y-45852D01*
X66619Y-45795D01*
X66591Y-45739D01*
X66535Y-45711D01*
X48158Y-52938D02*
X48101Y-52910D01*
X47989Y-52910D01*
X47933Y-52938D01*
X47876Y-52994D01*
X47848Y-53051D01*
X47848Y-53163D01*
X47876Y-53219D01*
X47933Y-53276D01*
X47989Y-53304D01*
X48101Y-53304D01*
X48158Y-53276D01*
X48045Y-52713D02*
X47904Y-52741D01*
X47764Y-52826D01*
X47679Y-52966D01*
X47651Y-53107D01*
X47679Y-53248D01*
X47764Y-53388D01*
X47904Y-53473D01*
X48045Y-53501D01*
X48186Y-53473D01*
X48326Y-53388D01*
X48411Y-53248D01*
X48439Y-53107D01*
X48411Y-52966D01*
X48326Y-52826D01*
X48186Y-52741D01*
X48045Y-52713D01*
X49114Y-52854D02*
X49142Y-52826D01*
X49198Y-52798D01*
X49339Y-52798D01*
X49395Y-52826D01*
X49423Y-52854D01*
X49451Y-52910D01*
X49451Y-52966D01*
X49423Y-53051D01*
X49086Y-53388D01*
X49451Y-53388D01*
X49817Y-52798D02*
X49873Y-52798D01*
X49929Y-52826D01*
X49957Y-52854D01*
X49985Y-52910D01*
X50014Y-53023D01*
X50014Y-53163D01*
X49985Y-53276D01*
X49957Y-53332D01*
X49929Y-53360D01*
X49873Y-53388D01*
X49817Y-53388D01*
X49760Y-53360D01*
X49732Y-53332D01*
X49704Y-53276D01*
X49676Y-53163D01*
X49676Y-53023D01*
X49704Y-52910D01*
X49732Y-52854D01*
X49760Y-52826D01*
X49817Y-52798D01*
X50576Y-53388D02*
X50239Y-53388D01*
X50407Y-53388D02*
X50407Y-52798D01*
X50351Y-52882D01*
X50295Y-52938D01*
X50239Y-52966D01*
X51082Y-52994D02*
X51082Y-53388D01*
X50942Y-52769D02*
X50801Y-53191D01*
X51167Y-53191D01*
X51841Y-53388D02*
X51841Y-52798D01*
X52179Y-53388D01*
X52179Y-52798D01*
X52460Y-53388D02*
X52460Y-52994D01*
X52460Y-52798D02*
X52432Y-52826D01*
X52460Y-52854D01*
X52488Y-52826D01*
X52460Y-52798D01*
X52460Y-52854D01*
X52994Y-53360D02*
X52938Y-53388D01*
X52826Y-53388D01*
X52769Y-53360D01*
X52741Y-53332D01*
X52713Y-53276D01*
X52713Y-53107D01*
X52741Y-53051D01*
X52769Y-53023D01*
X52826Y-52994D01*
X52938Y-52994D01*
X52994Y-53023D01*
X53332Y-53388D02*
X53276Y-53360D01*
X53248Y-53332D01*
X53219Y-53276D01*
X53219Y-53107D01*
X53248Y-53051D01*
X53276Y-53023D01*
X53332Y-52994D01*
X53416Y-52994D01*
X53473Y-53023D01*
X53501Y-53051D01*
X53529Y-53107D01*
X53529Y-53276D01*
X53501Y-53332D01*
X53473Y-53360D01*
X53416Y-53388D01*
X53332Y-53388D01*
X53866Y-53388D02*
X53810Y-53360D01*
X53782Y-53304D01*
X53782Y-52798D01*
X54344Y-53388D02*
X54344Y-53079D01*
X54316Y-53023D01*
X54260Y-52994D01*
X54147Y-52994D01*
X54091Y-53023D01*
X54344Y-53360D02*
X54288Y-53388D01*
X54147Y-53388D01*
X54091Y-53360D01*
X54063Y-53304D01*
X54063Y-53248D01*
X54091Y-53191D01*
X54147Y-53163D01*
X54288Y-53163D01*
X54344Y-53135D01*
X54597Y-53360D02*
X54654Y-53388D01*
X54766Y-53388D01*
X54822Y-53360D01*
X54850Y-53304D01*
X54850Y-53276D01*
X54822Y-53219D01*
X54766Y-53191D01*
X54682Y-53191D01*
X54625Y-53163D01*
X54597Y-53107D01*
X54597Y-53079D01*
X54625Y-53023D01*
X54682Y-52994D01*
X54766Y-52994D01*
X54822Y-53023D01*
X55750Y-53079D02*
X55835Y-53107D01*
X55863Y-53135D01*
X55891Y-53191D01*
X55891Y-53276D01*
X55863Y-53332D01*
X55835Y-53360D01*
X55778Y-53388D01*
X55553Y-53388D01*
X55553Y-52798D01*
X55750Y-52798D01*
X55807Y-52826D01*
X55835Y-52854D01*
X55863Y-52910D01*
X55863Y-52966D01*
X55835Y-53023D01*
X55807Y-53051D01*
X55750Y-53079D01*
X55553Y-53079D01*
X56116Y-53219D02*
X56397Y-53219D01*
X56060Y-53388D02*
X56257Y-52798D01*
X56453Y-53388D01*
X56931Y-53388D02*
X56650Y-53388D01*
X56650Y-52798D01*
X57128Y-53388D02*
X57128Y-52798D01*
X57269Y-52798D01*
X57353Y-52826D01*
X57410Y-52882D01*
X57438Y-52938D01*
X57466Y-53051D01*
X57466Y-53135D01*
X57438Y-53248D01*
X57410Y-53304D01*
X57353Y-53360D01*
X57269Y-53388D01*
X57128Y-53388D01*
X57719Y-53079D02*
X57916Y-53079D01*
X58000Y-53388D02*
X57719Y-53388D01*
X57719Y-52798D01*
X58000Y-52798D01*
X58591Y-53332D02*
X58562Y-53360D01*
X58478Y-53388D01*
X58422Y-53388D01*
X58338Y-53360D01*
X58281Y-53304D01*
X58253Y-53248D01*
X58225Y-53135D01*
X58225Y-53051D01*
X58253Y-52938D01*
X58281Y-52882D01*
X58338Y-52826D01*
X58422Y-52798D01*
X58478Y-52798D01*
X58562Y-52826D01*
X58591Y-52854D01*
X58844Y-53388D02*
X58844Y-52798D01*
X59181Y-53388D02*
X58928Y-53051D01*
X59181Y-52798D02*
X58844Y-53135D01*
X60306Y-52769D02*
X59800Y-53529D01*
X61150Y-53079D02*
X61234Y-53107D01*
X61262Y-53135D01*
X61290Y-53191D01*
X61290Y-53276D01*
X61262Y-53332D01*
X61234Y-53360D01*
X61178Y-53388D01*
X60953Y-53388D01*
X60953Y-52798D01*
X61150Y-52798D01*
X61206Y-52826D01*
X61234Y-52854D01*
X61262Y-52910D01*
X61262Y-52966D01*
X61234Y-53023D01*
X61206Y-53051D01*
X61150Y-53079D01*
X60953Y-53079D01*
X61796Y-53388D02*
X61796Y-53079D01*
X61768Y-53023D01*
X61712Y-52994D01*
X61600Y-52994D01*
X61543Y-53023D01*
X61796Y-53360D02*
X61740Y-53388D01*
X61600Y-53388D01*
X61543Y-53360D01*
X61515Y-53304D01*
X61515Y-53248D01*
X61543Y-53191D01*
X61600Y-53163D01*
X61740Y-53163D01*
X61796Y-53135D01*
X62331Y-53360D02*
X62275Y-53388D01*
X62162Y-53388D01*
X62106Y-53360D01*
X62078Y-53332D01*
X62050Y-53276D01*
X62050Y-53107D01*
X62078Y-53051D01*
X62106Y-53023D01*
X62162Y-52994D01*
X62275Y-52994D01*
X62331Y-53023D01*
X63034Y-52994D02*
X63034Y-53585D01*
X63034Y-53023D02*
X63090Y-52994D01*
X63203Y-52994D01*
X63259Y-53023D01*
X63287Y-53051D01*
X63315Y-53107D01*
X63315Y-53276D01*
X63287Y-53332D01*
X63259Y-53360D01*
X63203Y-53388D01*
X63090Y-53388D01*
X63034Y-53360D01*
X63652Y-53388D02*
X63596Y-53360D01*
X63568Y-53304D01*
X63568Y-52798D01*
X64131Y-52994D02*
X64131Y-53388D01*
X63877Y-52994D02*
X63877Y-53304D01*
X63906Y-53360D01*
X63962Y-53388D01*
X64046Y-53388D01*
X64102Y-53360D01*
X64131Y-53332D01*
X64384Y-53360D02*
X64440Y-53388D01*
X64552Y-53388D01*
X64609Y-53360D01*
X64637Y-53304D01*
X64637Y-53276D01*
X64609Y-53219D01*
X64552Y-53191D01*
X64468Y-53191D01*
X64412Y-53163D01*
X64384Y-53107D01*
X64384Y-53079D01*
X64412Y-53023D01*
X64468Y-52994D01*
X64552Y-52994D01*
X64609Y-53023D01*
X65284Y-52994D02*
X65593Y-52994D01*
X65284Y-53388D01*
X65593Y-53388D01*
X66043Y-53360D02*
X65987Y-53388D01*
X65874Y-53388D01*
X65818Y-53360D01*
X65790Y-53304D01*
X65790Y-53079D01*
X65818Y-53023D01*
X65874Y-52994D01*
X65987Y-52994D01*
X66043Y-53023D01*
X66071Y-53079D01*
X66071Y-53135D01*
X65790Y-53191D01*
X65987Y-52769D02*
X65902Y-52854D01*
X66324Y-53388D02*
X66324Y-52994D01*
X66324Y-53107D02*
X66352Y-53051D01*
X66380Y-53023D01*
X66437Y-52994D01*
X66493Y-52994D01*
X66774Y-53388D02*
X66718Y-53360D01*
X66690Y-53332D01*
X66661Y-53276D01*
X66661Y-53107D01*
X66690Y-53051D01*
X66718Y-53023D01*
X66774Y-52994D01*
X66858Y-52994D01*
X66915Y-53023D01*
X66943Y-53051D01*
X66971Y-53107D01*
X66971Y-53276D01*
X66943Y-53332D01*
X66915Y-53360D01*
X66858Y-53388D01*
X66774Y-53388D01*
X67646Y-53360D02*
X67730Y-53388D01*
X67871Y-53388D01*
X67927Y-53360D01*
X67955Y-53332D01*
X67983Y-53276D01*
X67983Y-53219D01*
X67955Y-53163D01*
X67927Y-53135D01*
X67871Y-53107D01*
X67758Y-53079D01*
X67702Y-53051D01*
X67674Y-53023D01*
X67646Y-52966D01*
X67646Y-52910D01*
X67674Y-52854D01*
X67702Y-52826D01*
X67758Y-52798D01*
X67899Y-52798D01*
X67983Y-52826D01*
X68208Y-53219D02*
X68489Y-53219D01*
X68152Y-53388D02*
X68349Y-52798D01*
X68546Y-53388D01*
X68714Y-53360D02*
X68799Y-53388D01*
X68939Y-53388D01*
X68996Y-53360D01*
X69024Y-53332D01*
X69052Y-53276D01*
X69052Y-53219D01*
X69024Y-53163D01*
X68996Y-53135D01*
X68939Y-53107D01*
X68827Y-53079D01*
X68771Y-53051D01*
X68742Y-53023D01*
X68714Y-52966D01*
X68714Y-52910D01*
X68742Y-52854D01*
X68771Y-52826D01*
X68827Y-52798D01*
X68967Y-52798D01*
X69052Y-52826D01*
X69305Y-52798D02*
X69305Y-53276D01*
X69333Y-53332D01*
X69361Y-53360D01*
X69417Y-53388D01*
X69530Y-53388D01*
X69586Y-53360D01*
X69614Y-53332D01*
X69642Y-53276D01*
X69642Y-52798D01*
G54D10*
X40551Y-31920D02*
G75*
G02X49212Y-28543I8660J-9418D01*
G74*
G01*
X40551Y-31921D02*
X40551Y-50748D01*
G54D11*
X53796Y-44333D02*
X53599Y-44052D01*
X53458Y-44333D02*
X53458Y-43742D01*
X53683Y-43742D01*
X53740Y-43771D01*
X53768Y-43799D01*
X53796Y-43855D01*
X53796Y-43939D01*
X53768Y-43996D01*
X53740Y-44024D01*
X53683Y-44052D01*
X53458Y-44052D01*
X54274Y-44305D02*
X54218Y-44333D01*
X54105Y-44333D01*
X54049Y-44305D01*
X54021Y-44249D01*
X54021Y-44024D01*
X54049Y-43967D01*
X54105Y-43939D01*
X54218Y-43939D01*
X54274Y-43967D01*
X54302Y-44024D01*
X54302Y-44080D01*
X54021Y-44136D01*
X54218Y-43714D02*
X54133Y-43799D01*
X54499Y-43939D02*
X54640Y-44333D01*
X54780Y-43939D01*
X55230Y-44305D02*
X55174Y-44333D01*
X55061Y-44333D01*
X55005Y-44305D01*
X54977Y-44249D01*
X54977Y-44024D01*
X55005Y-43967D01*
X55061Y-43939D01*
X55174Y-43939D01*
X55230Y-43967D01*
X55258Y-44024D01*
X55258Y-44080D01*
X54977Y-44136D01*
X55174Y-43714D02*
X55089Y-43799D01*
X55539Y-44305D02*
X55539Y-44333D01*
X55511Y-44389D01*
X55483Y-44417D01*
X56496Y-44305D02*
X56439Y-44333D01*
X56327Y-44333D01*
X56271Y-44305D01*
X56242Y-44277D01*
X56214Y-44221D01*
X56214Y-44052D01*
X56242Y-43996D01*
X56271Y-43967D01*
X56327Y-43939D01*
X56439Y-43939D01*
X56496Y-43967D01*
X56833Y-44333D02*
X56777Y-44305D01*
X56749Y-44277D01*
X56721Y-44221D01*
X56721Y-44052D01*
X56749Y-43996D01*
X56777Y-43967D01*
X56833Y-43939D01*
X56917Y-43939D01*
X56974Y-43967D01*
X57002Y-43996D01*
X57030Y-44052D01*
X57030Y-44221D01*
X57002Y-44277D01*
X56974Y-44305D01*
X56917Y-44333D01*
X56833Y-44333D01*
X57283Y-43939D02*
X57283Y-44333D01*
X57283Y-43996D02*
X57311Y-43967D01*
X57367Y-43939D01*
X57452Y-43939D01*
X57508Y-43967D01*
X57536Y-44024D01*
X57536Y-44333D01*
X58070Y-44305D02*
X58014Y-44333D01*
X57902Y-44333D01*
X57845Y-44305D01*
X57817Y-44277D01*
X57789Y-44221D01*
X57789Y-44052D01*
X57817Y-43996D01*
X57845Y-43967D01*
X57902Y-43939D01*
X58014Y-43939D01*
X58070Y-43967D01*
X57958Y-44361D02*
X58014Y-44389D01*
X58042Y-44446D01*
X58014Y-44502D01*
X57958Y-44530D01*
X57874Y-44530D01*
X58577Y-43939D02*
X58577Y-44333D01*
X58323Y-43939D02*
X58323Y-44249D01*
X58352Y-44305D01*
X58408Y-44333D01*
X58492Y-44333D01*
X58548Y-44305D01*
X58577Y-44277D01*
X59533Y-44305D02*
X59476Y-44333D01*
X59364Y-44333D01*
X59308Y-44305D01*
X59280Y-44249D01*
X59280Y-44024D01*
X59308Y-43967D01*
X59364Y-43939D01*
X59476Y-43939D01*
X59533Y-43967D01*
X59561Y-44024D01*
X59561Y-44080D01*
X59280Y-44136D01*
X59730Y-43939D02*
X59955Y-43939D01*
X59814Y-43742D02*
X59814Y-44249D01*
X59842Y-44305D01*
X59898Y-44333D01*
X59955Y-44333D01*
X60854Y-44333D02*
X60854Y-44024D01*
X60826Y-43967D01*
X60770Y-43939D01*
X60658Y-43939D01*
X60601Y-43967D01*
X60854Y-44305D02*
X60798Y-44333D01*
X60658Y-44333D01*
X60601Y-44305D01*
X60573Y-44249D01*
X60573Y-44192D01*
X60601Y-44136D01*
X60658Y-44108D01*
X60798Y-44108D01*
X60854Y-44080D01*
X61107Y-44305D02*
X61164Y-44333D01*
X61276Y-44333D01*
X61332Y-44305D01*
X61361Y-44249D01*
X61361Y-44221D01*
X61332Y-44164D01*
X61276Y-44136D01*
X61192Y-44136D01*
X61136Y-44108D01*
X61107Y-44052D01*
X61107Y-44024D01*
X61136Y-43967D01*
X61192Y-43939D01*
X61276Y-43939D01*
X61332Y-43967D01*
X61586Y-44305D02*
X61642Y-44333D01*
X61754Y-44333D01*
X61811Y-44305D01*
X61839Y-44249D01*
X61839Y-44221D01*
X61811Y-44164D01*
X61754Y-44136D01*
X61670Y-44136D01*
X61614Y-44108D01*
X61586Y-44052D01*
X61586Y-44024D01*
X61614Y-43967D01*
X61670Y-43939D01*
X61754Y-43939D01*
X61811Y-43967D01*
X62317Y-44305D02*
X62260Y-44333D01*
X62148Y-44333D01*
X62092Y-44305D01*
X62064Y-44249D01*
X62064Y-44024D01*
X62092Y-43967D01*
X62148Y-43939D01*
X62260Y-43939D01*
X62317Y-43967D01*
X62345Y-44024D01*
X62345Y-44080D01*
X62064Y-44136D01*
X62598Y-44333D02*
X62598Y-43939D01*
X62598Y-43996D02*
X62626Y-43967D01*
X62682Y-43939D01*
X62767Y-43939D01*
X62823Y-43967D01*
X62851Y-44024D01*
X62851Y-44333D01*
X62851Y-44024D02*
X62879Y-43967D01*
X62935Y-43939D01*
X63020Y-43939D01*
X63076Y-43967D01*
X63104Y-44024D01*
X63104Y-44333D01*
X63385Y-44333D02*
X63385Y-43742D01*
X63385Y-43967D02*
X63442Y-43939D01*
X63554Y-43939D01*
X63610Y-43967D01*
X63638Y-43996D01*
X63667Y-44052D01*
X63667Y-44221D01*
X63638Y-44277D01*
X63610Y-44305D01*
X63554Y-44333D01*
X63442Y-44333D01*
X63385Y-44305D01*
X64004Y-44333D02*
X63948Y-44305D01*
X63920Y-44249D01*
X63920Y-43742D01*
X64454Y-44305D02*
X64398Y-44333D01*
X64285Y-44333D01*
X64229Y-44305D01*
X64201Y-44249D01*
X64201Y-44024D01*
X64229Y-43967D01*
X64285Y-43939D01*
X64398Y-43939D01*
X64454Y-43967D01*
X64482Y-44024D01*
X64482Y-44080D01*
X64201Y-44136D01*
X64398Y-43714D02*
X64313Y-43799D01*
X65438Y-44333D02*
X65438Y-44024D01*
X65410Y-43967D01*
X65354Y-43939D01*
X65241Y-43939D01*
X65185Y-43967D01*
X65438Y-44305D02*
X65382Y-44333D01*
X65241Y-44333D01*
X65185Y-44305D01*
X65157Y-44249D01*
X65157Y-44192D01*
X65185Y-44136D01*
X65241Y-44108D01*
X65382Y-44108D01*
X65438Y-44080D01*
X65241Y-43714D02*
X65326Y-43799D01*
X66479Y-43771D02*
X66422Y-43742D01*
X66338Y-43742D01*
X66254Y-43771D01*
X66197Y-43827D01*
X66169Y-43883D01*
X66141Y-43996D01*
X66141Y-44080D01*
X66169Y-44192D01*
X66197Y-44249D01*
X66254Y-44305D01*
X66338Y-44333D01*
X66394Y-44333D01*
X66479Y-44305D01*
X66507Y-44277D01*
X66507Y-44080D01*
X66394Y-44080D01*
X66760Y-44333D02*
X66760Y-43939D01*
X66760Y-44052D02*
X66788Y-43996D01*
X66816Y-43967D01*
X66872Y-43939D01*
X66929Y-43939D01*
X67350Y-44305D02*
X67294Y-44333D01*
X67182Y-44333D01*
X67125Y-44305D01*
X67097Y-44249D01*
X67097Y-44024D01*
X67125Y-43967D01*
X67182Y-43939D01*
X67294Y-43939D01*
X67350Y-43967D01*
X67379Y-44024D01*
X67379Y-44080D01*
X67097Y-44136D01*
X67632Y-43939D02*
X67632Y-44333D01*
X67632Y-43996D02*
X67660Y-43967D01*
X67716Y-43939D01*
X67800Y-43939D01*
X67857Y-43967D01*
X67885Y-44024D01*
X67885Y-44333D01*
X68250Y-44333D02*
X68194Y-44305D01*
X68166Y-44277D01*
X68138Y-44221D01*
X68138Y-44052D01*
X68166Y-43996D01*
X68194Y-43967D01*
X68250Y-43939D01*
X68335Y-43939D01*
X68391Y-43967D01*
X68419Y-43996D01*
X68447Y-44052D01*
X68447Y-44221D01*
X68419Y-44277D01*
X68391Y-44305D01*
X68335Y-44333D01*
X68250Y-44333D01*
X68700Y-44333D02*
X68700Y-43742D01*
X68700Y-43967D02*
X68757Y-43939D01*
X68869Y-43939D01*
X68925Y-43967D01*
X68953Y-43996D01*
X68982Y-44052D01*
X68982Y-44221D01*
X68953Y-44277D01*
X68925Y-44305D01*
X68869Y-44333D01*
X68757Y-44333D01*
X68700Y-44305D01*
X69319Y-44333D02*
X69263Y-44305D01*
X69235Y-44249D01*
X69235Y-43742D01*
X69769Y-44305D02*
X69713Y-44333D01*
X69600Y-44333D01*
X69544Y-44305D01*
X69516Y-44249D01*
X69516Y-44024D01*
X69544Y-43967D01*
X69600Y-43939D01*
X69713Y-43939D01*
X69769Y-43967D01*
X69797Y-44024D01*
X69797Y-44080D01*
X69516Y-44136D01*
X61881Y-43152D02*
X61881Y-42561D01*
X62134Y-43152D02*
X62134Y-42843D01*
X62106Y-42786D01*
X62050Y-42758D01*
X61965Y-42758D01*
X61909Y-42786D01*
X61881Y-42814D01*
X62331Y-42758D02*
X62556Y-42758D01*
X62415Y-42561D02*
X62415Y-43068D01*
X62443Y-43124D01*
X62499Y-43152D01*
X62556Y-43152D01*
X62668Y-42758D02*
X62893Y-42758D01*
X62753Y-42561D02*
X62753Y-43068D01*
X62781Y-43124D01*
X62837Y-43152D01*
X62893Y-43152D01*
X63090Y-42758D02*
X63090Y-43349D01*
X63090Y-42786D02*
X63146Y-42758D01*
X63259Y-42758D01*
X63315Y-42786D01*
X63343Y-42814D01*
X63371Y-42871D01*
X63371Y-43039D01*
X63343Y-43096D01*
X63315Y-43124D01*
X63259Y-43152D01*
X63146Y-43152D01*
X63090Y-43124D01*
X63624Y-43096D02*
X63652Y-43124D01*
X63624Y-43152D01*
X63596Y-43124D01*
X63624Y-43096D01*
X63624Y-43152D01*
X63624Y-42786D02*
X63652Y-42814D01*
X63624Y-42843D01*
X63596Y-42814D01*
X63624Y-42786D01*
X63624Y-42843D01*
X64327Y-42533D02*
X63821Y-43293D01*
X64946Y-42533D02*
X64440Y-43293D01*
X65143Y-42758D02*
X65143Y-43349D01*
X65143Y-42786D02*
X65199Y-42758D01*
X65312Y-42758D01*
X65368Y-42786D01*
X65396Y-42814D01*
X65424Y-42871D01*
X65424Y-43039D01*
X65396Y-43096D01*
X65368Y-43124D01*
X65312Y-43152D01*
X65199Y-43152D01*
X65143Y-43124D01*
X65677Y-43152D02*
X65677Y-42758D01*
X65677Y-42561D02*
X65649Y-42589D01*
X65677Y-42618D01*
X65705Y-42589D01*
X65677Y-42561D01*
X65677Y-42618D01*
X66043Y-43152D02*
X65987Y-43124D01*
X65958Y-43096D01*
X65930Y-43039D01*
X65930Y-42871D01*
X65958Y-42814D01*
X65987Y-42786D01*
X66043Y-42758D01*
X66127Y-42758D01*
X66183Y-42786D01*
X66212Y-42814D01*
X66240Y-42871D01*
X66240Y-43039D01*
X66212Y-43096D01*
X66183Y-43124D01*
X66127Y-43152D01*
X66043Y-43152D01*
X66746Y-42758D02*
X66746Y-43152D01*
X66493Y-42758D02*
X66493Y-43068D01*
X66521Y-43124D01*
X66577Y-43152D01*
X66661Y-43152D01*
X66718Y-43124D01*
X66746Y-43096D01*
X67027Y-42758D02*
X67027Y-43349D01*
X67027Y-42786D02*
X67083Y-42758D01*
X67196Y-42758D01*
X67252Y-42786D01*
X67280Y-42814D01*
X67308Y-42871D01*
X67308Y-43039D01*
X67280Y-43096D01*
X67252Y-43124D01*
X67196Y-43152D01*
X67083Y-43152D01*
X67027Y-43124D01*
X67561Y-43152D02*
X67561Y-42758D01*
X67561Y-42561D02*
X67533Y-42589D01*
X67561Y-42618D01*
X67589Y-42589D01*
X67561Y-42561D01*
X67561Y-42618D01*
X67927Y-43152D02*
X67871Y-43124D01*
X67843Y-43096D01*
X67814Y-43039D01*
X67814Y-42871D01*
X67843Y-42814D01*
X67871Y-42786D01*
X67927Y-42758D01*
X68011Y-42758D01*
X68068Y-42786D01*
X68096Y-42814D01*
X68124Y-42871D01*
X68124Y-43039D01*
X68096Y-43096D01*
X68068Y-43124D01*
X68011Y-43152D01*
X67927Y-43152D01*
X68630Y-42758D02*
X68630Y-43152D01*
X68377Y-42758D02*
X68377Y-43068D01*
X68405Y-43124D01*
X68461Y-43152D01*
X68546Y-43152D01*
X68602Y-43124D01*
X68630Y-43096D01*
X68911Y-43096D02*
X68939Y-43124D01*
X68911Y-43152D01*
X68883Y-43124D01*
X68911Y-43096D01*
X68911Y-43152D01*
X69108Y-42758D02*
X69333Y-42758D01*
X69192Y-43152D02*
X69192Y-42646D01*
X69221Y-42589D01*
X69277Y-42561D01*
X69333Y-42561D01*
X69530Y-43152D02*
X69530Y-42758D01*
X69530Y-42871D02*
X69558Y-42814D01*
X69586Y-42786D01*
X69642Y-42758D01*
X69699Y-42758D01*
G54D14*
X53383Y-43232D02*
X53383Y-42444D01*
X53683Y-42444D01*
X53758Y-42482D01*
X53796Y-42519D01*
X53833Y-42594D01*
X53833Y-42707D01*
X53796Y-42782D01*
X53758Y-42819D01*
X53683Y-42857D01*
X53383Y-42857D01*
X54171Y-43232D02*
X54171Y-42707D01*
X54171Y-42444D02*
X54133Y-42482D01*
X54171Y-42519D01*
X54208Y-42482D01*
X54171Y-42444D01*
X54171Y-42519D01*
X54658Y-43232D02*
X54583Y-43194D01*
X54546Y-43157D01*
X54508Y-43082D01*
X54508Y-42857D01*
X54546Y-42782D01*
X54583Y-42744D01*
X54658Y-42707D01*
X54771Y-42707D01*
X54846Y-42744D01*
X54883Y-42782D01*
X54921Y-42857D01*
X54921Y-43082D01*
X54883Y-43157D01*
X54846Y-43194D01*
X54771Y-43232D01*
X54658Y-43232D01*
X55596Y-42707D02*
X55596Y-43232D01*
X55258Y-42707D02*
X55258Y-43119D01*
X55296Y-43194D01*
X55371Y-43232D01*
X55483Y-43232D01*
X55558Y-43194D01*
X55596Y-43157D01*
X55971Y-42707D02*
X55971Y-43494D01*
X55971Y-42744D02*
X56046Y-42707D01*
X56196Y-42707D01*
X56271Y-42744D01*
X56308Y-42782D01*
X56346Y-42857D01*
X56346Y-43082D01*
X56308Y-43157D01*
X56271Y-43194D01*
X56196Y-43232D01*
X56046Y-43232D01*
X55971Y-43194D01*
X56683Y-43232D02*
X56683Y-42707D01*
X56683Y-42444D02*
X56646Y-42482D01*
X56683Y-42519D01*
X56721Y-42482D01*
X56683Y-42444D01*
X56683Y-42519D01*
X57170Y-43232D02*
X57095Y-43194D01*
X57058Y-43157D01*
X57020Y-43082D01*
X57020Y-42857D01*
X57058Y-42782D01*
X57095Y-42744D01*
X57170Y-42707D01*
X57283Y-42707D01*
X57358Y-42744D01*
X57395Y-42782D01*
X57433Y-42857D01*
X57433Y-43082D01*
X57395Y-43157D01*
X57358Y-43194D01*
X57283Y-43232D01*
X57170Y-43232D01*
X58108Y-42707D02*
X58108Y-43232D01*
X57770Y-42707D02*
X57770Y-43119D01*
X57808Y-43194D01*
X57883Y-43232D01*
X57995Y-43232D01*
X58070Y-43194D01*
X58108Y-43157D01*
X59008Y-42707D02*
X59195Y-43232D01*
X59383Y-42707D01*
X59833Y-42444D02*
X59908Y-42444D01*
X59983Y-42482D01*
X60020Y-42519D01*
X60058Y-42594D01*
X60095Y-42744D01*
X60095Y-42932D01*
X60058Y-43082D01*
X60020Y-43157D01*
X59983Y-43194D01*
X59908Y-43232D01*
X59833Y-43232D01*
X59758Y-43194D01*
X59720Y-43157D01*
X59683Y-43082D01*
X59645Y-42932D01*
X59645Y-42744D01*
X59683Y-42594D01*
X59720Y-42519D01*
X59758Y-42482D01*
X59833Y-42444D01*
X60433Y-43157D02*
X60470Y-43194D01*
X60433Y-43232D01*
X60395Y-43194D01*
X60433Y-43157D01*
X60433Y-43232D01*
X60770Y-42519D02*
X60808Y-42482D01*
X60883Y-42444D01*
X61070Y-42444D01*
X61145Y-42482D01*
X61182Y-42519D01*
X61220Y-42594D01*
X61220Y-42669D01*
X61182Y-42782D01*
X60733Y-43232D01*
X61220Y-43232D01*
G54D12*
X51299Y-32007D02*
G75*
G03X51299Y-32007I-314J0D01*
G74*
G01*
X47755Y-32007D02*
G75*
G03X47755Y-32007I-314J0D01*
G74*
G01*
X68858Y-49803D02*
G75*
G03X68858Y-49803I-511J0D01*
G74*
G01*
X68858Y-32874D02*
G75*
G03X68858Y-32874I-511J0D01*
G74*
G01*
X43188Y-34842D02*
G75*
G03X43188Y-34842I-511J0D01*
G74*
G01*
X43188Y-47834D02*
G75*
G03X43188Y-47834I-511J0D01*
G74*
G01*
G54D10*
X70472Y-54133D02*
X49212Y-54133D01*
X70472Y-28543D02*
X70472Y-54133D01*
X49212Y-28543D02*
X70472Y-28543D01*
X40551Y-50757D02*
G75*
G03X49212Y-54133I8660J9418D01*
G74*
G01*
G54D12*
X51023Y-41338D02*
G75*
G03X51023Y-41338I-1811J0D01*
G74*
G01*
G54D10*
X66476Y-36771D02*
X66870Y-36771D01*
X66673Y-34606D02*
X66673Y-35000D01*
X66476Y-34803D02*
X66870Y-34803D01*
X66279Y-36377D02*
X69330Y-36377D01*
X66279Y-37165D02*
X69330Y-37165D01*
X69035Y-36574D02*
X69330Y-36377D01*
X69232Y-36771D02*
X69035Y-36574D01*
X69035Y-36870D02*
X69232Y-36771D01*
X69330Y-37165D02*
X69035Y-36870D01*
X69330Y-35196D02*
X69035Y-34901D01*
X69035Y-34901D02*
X69232Y-34803D01*
X69232Y-34803D02*
X69035Y-34606D01*
X69035Y-34606D02*
X69330Y-34409D01*
X66279Y-35196D02*
X69330Y-35196D01*
X66279Y-34409D02*
X69330Y-34409D01*
G54D15*
X61653Y-46456D02*
X61653Y-48208D01*
X61653Y-48208D02*
X59960Y-48208D01*
X59960Y-48208D02*
X59960Y-46456D01*
X59960Y-46456D02*
X61653Y-46456D01*
G54D10*
X61161Y-35866D02*
X60964Y-35669D01*
X61161Y-36850D02*
X61161Y-35669D01*
X61161Y-35669D02*
X60078Y-35669D01*
X60078Y-35669D02*
X60078Y-36850D01*
X60078Y-36850D02*
X61161Y-36850D01*
X60034Y-33986D02*
X60624Y-33986D01*
X60334Y-33736D02*
X60334Y-34286D01*
X59934Y-48866D02*
X60644Y-48876D01*
X58584Y-29846D02*
X58584Y-32346D01*
X58584Y-32346D02*
X62084Y-32346D01*
X62084Y-32346D02*
X62084Y-29846D01*
X58584Y-53146D02*
X58584Y-50646D01*
X58584Y-50646D02*
X62084Y-50646D01*
X62084Y-50646D02*
X62084Y-53146D01*
X64768Y-48691D02*
X64178Y-48691D01*
X64468Y-48941D02*
X64468Y-48391D01*
X64868Y-33811D02*
X64158Y-33801D01*
X66218Y-52831D02*
X66218Y-50331D01*
X66218Y-50331D02*
X62718Y-50331D01*
X62718Y-50331D02*
X62718Y-52831D01*
X66218Y-29531D02*
X66218Y-32031D01*
X66218Y-32031D02*
X62718Y-32031D01*
X62718Y-32031D02*
X62718Y-29531D01*
G54D15*
X43759Y-50019D02*
X43759Y-45019D01*
X43759Y-45019D02*
X53759Y-45019D01*
X44192Y-50019D02*
X43759Y-50019D01*
X53759Y-50019D02*
X44743Y-50019D01*
X44743Y-50019D02*
X44192Y-50019D01*
X53759Y-45019D02*
X53759Y-50019D01*
G54D16*
X59231Y-46358D02*
X59231Y-46080D01*
X59231Y-46080D02*
X58681Y-46080D01*
X58681Y-46080D02*
X58681Y-46358D01*
X59231Y-47030D02*
X59231Y-46752D01*
X59231Y-47030D02*
X58681Y-47030D01*
X58681Y-47030D02*
X58681Y-46752D01*
X58444Y-46358D02*
X58444Y-46080D01*
X58444Y-46080D02*
X57894Y-46080D01*
X57894Y-46080D02*
X57894Y-46358D01*
X58444Y-47030D02*
X58444Y-46752D01*
X58444Y-47030D02*
X57894Y-47030D01*
X57894Y-47030D02*
X57894Y-46752D01*
X46850Y-33976D02*
X46572Y-33976D01*
X46572Y-33976D02*
X46572Y-34526D01*
X46572Y-34526D02*
X46850Y-34526D01*
X47522Y-33976D02*
X47244Y-33976D01*
X47522Y-33976D02*
X47522Y-34526D01*
X47522Y-34526D02*
X47244Y-34526D01*
X54016Y-38858D02*
X54016Y-39136D01*
X54016Y-39136D02*
X54566Y-39136D01*
X54566Y-39136D02*
X54566Y-38858D01*
X54016Y-38186D02*
X54016Y-38464D01*
X54016Y-38186D02*
X54566Y-38186D01*
X54566Y-38186D02*
X54566Y-38464D01*
X46850Y-35354D02*
X46572Y-35354D01*
X46572Y-35354D02*
X46572Y-35904D01*
X46572Y-35904D02*
X46850Y-35904D01*
X47522Y-35354D02*
X47244Y-35354D01*
X47522Y-35354D02*
X47522Y-35904D01*
X47522Y-35904D02*
X47244Y-35904D01*
X46850Y-36732D02*
X46572Y-36732D01*
X46572Y-36732D02*
X46572Y-37282D01*
X46572Y-37282D02*
X46850Y-37282D01*
X47522Y-36732D02*
X47244Y-36732D01*
X47522Y-36732D02*
X47522Y-37282D01*
X47522Y-37282D02*
X47244Y-37282D01*
X51496Y-38680D02*
X51774Y-38680D01*
X51774Y-38680D02*
X51774Y-38130D01*
X51774Y-38130D02*
X51496Y-38130D01*
X50824Y-38680D02*
X51102Y-38680D01*
X50824Y-38680D02*
X50824Y-38130D01*
X50824Y-38130D02*
X51102Y-38130D01*
X60432Y-36910D02*
X60154Y-36910D01*
X60154Y-36910D02*
X60154Y-37460D01*
X60154Y-37460D02*
X60432Y-37460D01*
X61104Y-36910D02*
X60826Y-36910D01*
X61104Y-36910D02*
X61104Y-37460D01*
X61104Y-37460D02*
X60826Y-37460D01*
X61870Y-35767D02*
X61870Y-36045D01*
X61870Y-36045D02*
X62420Y-36045D01*
X62420Y-36045D02*
X62420Y-35767D01*
X61870Y-35095D02*
X61870Y-35373D01*
X61870Y-35095D02*
X62420Y-35095D01*
X62420Y-35095D02*
X62420Y-35373D01*
X59960Y-37283D02*
X59960Y-37005D01*
X59960Y-37005D02*
X59410Y-37005D01*
X59410Y-37005D02*
X59410Y-37283D01*
X59960Y-37955D02*
X59960Y-37677D01*
X59960Y-37955D02*
X59410Y-37955D01*
X59410Y-37955D02*
X59410Y-37677D01*
X54763Y-35787D02*
X54485Y-35787D01*
X54485Y-35787D02*
X54485Y-36337D01*
X54485Y-36337D02*
X54763Y-36337D01*
X55435Y-35787D02*
X55157Y-35787D01*
X55435Y-35787D02*
X55435Y-36337D01*
X55435Y-36337D02*
X55157Y-36337D01*
X51771Y-51201D02*
X51493Y-51201D01*
X51493Y-51201D02*
X51493Y-51751D01*
X51493Y-51751D02*
X51771Y-51751D01*
X52443Y-51201D02*
X52165Y-51201D01*
X52443Y-51201D02*
X52443Y-51751D01*
X52443Y-51751D02*
X52165Y-51751D01*
G54D17*
X62145Y-47539D02*
X62145Y-47814D01*
X62145Y-47145D02*
X62145Y-46870D01*
X62657Y-47539D02*
X62657Y-47814D01*
X62657Y-46870D02*
X62657Y-47145D01*
X62651Y-47814D02*
X62151Y-47814D01*
X62151Y-46870D02*
X62651Y-46870D01*
X52460Y-51043D02*
X52735Y-51043D01*
X52066Y-51043D02*
X51791Y-51043D01*
X52460Y-50531D02*
X52735Y-50531D01*
X51791Y-50531D02*
X52066Y-50531D01*
X52735Y-50537D02*
X52735Y-51037D01*
X51791Y-51037D02*
X51791Y-50537D01*
X53248Y-51732D02*
X53523Y-51732D01*
X52854Y-51732D02*
X52579Y-51732D01*
X53248Y-51220D02*
X53523Y-51220D01*
X52579Y-51220D02*
X52854Y-51220D01*
X53523Y-51226D02*
X53523Y-51726D01*
X52579Y-51726D02*
X52579Y-51226D01*
G54D16*
X55245Y-37433D02*
X54045Y-37433D01*
X54045Y-37433D02*
X54045Y-37133D01*
X54045Y-37133D02*
X55245Y-37133D01*
X55245Y-37133D02*
X55245Y-37433D01*
G54D10*
X59881Y-40826D02*
X59881Y-41771D01*
X59881Y-41771D02*
X54842Y-41771D01*
X54842Y-41771D02*
X54842Y-40826D01*
X54842Y-40826D02*
X59881Y-40826D01*
X57086Y-32992D02*
G75*
G03X57086Y-32992I-2401J0D01*
G74*
G01*
G54D16*
X48150Y-33267D02*
X48150Y-33545D01*
X48150Y-33545D02*
X48700Y-33545D01*
X48700Y-33545D02*
X48700Y-33267D01*
X48150Y-32595D02*
X48150Y-32873D01*
X48150Y-32595D02*
X48700Y-32595D01*
X48700Y-32595D02*
X48700Y-32873D01*
G54D17*
X61181Y-36082D02*
X61181Y-36357D01*
X61181Y-35688D02*
X61181Y-35413D01*
X61693Y-36082D02*
X61693Y-36357D01*
X61693Y-35413D02*
X61693Y-35688D01*
X61687Y-36357D02*
X61187Y-36357D01*
X61187Y-35413D02*
X61687Y-35413D01*
G54D15*
X64830Y-40625D02*
X64972Y-41204D01*
X64972Y-41204D02*
X65082Y-40786D01*
X65082Y-40786D02*
X65204Y-41208D01*
X65204Y-41208D02*
X65338Y-40637D01*
X64271Y-40897D02*
X64582Y-40893D01*
X64582Y-40893D02*
X64586Y-40897D01*
X64586Y-40897D02*
X64586Y-40893D01*
X64602Y-40613D02*
X64602Y-41220D01*
X64252Y-40609D02*
X64252Y-41227D01*
X64252Y-41227D02*
X64256Y-41223D01*
X64035Y-40649D02*
X63897Y-40617D01*
X63897Y-40617D02*
X63771Y-40613D01*
X63771Y-40613D02*
X63677Y-40692D01*
X63677Y-40692D02*
X63665Y-40798D01*
X63665Y-40798D02*
X63760Y-40893D01*
X63760Y-40893D02*
X63913Y-40944D01*
X63913Y-40944D02*
X63984Y-41007D01*
X63984Y-41007D02*
X64000Y-41125D01*
X64000Y-41125D02*
X63909Y-41212D01*
X63909Y-41212D02*
X63783Y-41223D01*
X63783Y-41223D02*
X63645Y-41180D01*
X63236Y-40609D02*
X63138Y-40617D01*
X63138Y-40617D02*
X63043Y-40712D01*
X63043Y-40712D02*
X63008Y-40905D01*
X63008Y-40905D02*
X63019Y-41042D01*
X63019Y-41042D02*
X63098Y-41168D01*
X63098Y-41168D02*
X63197Y-41216D01*
X63197Y-41216D02*
X63319Y-41188D01*
X63319Y-41188D02*
X63405Y-41117D01*
X63405Y-41117D02*
X63433Y-40936D01*
X63433Y-40936D02*
X63413Y-40775D01*
X63413Y-40775D02*
X63370Y-40664D01*
X63370Y-40664D02*
X63228Y-40613D01*
X63472Y-39932D02*
X63370Y-40153D01*
X63370Y-40153D02*
X63582Y-40357D01*
X63582Y-40357D02*
X63787Y-40251D01*
X63787Y-40251D02*
X63897Y-40314D01*
X64464Y-40306D02*
X64594Y-40231D01*
X64594Y-40231D02*
X64767Y-40361D01*
X64767Y-40361D02*
X64953Y-40168D01*
X64953Y-40168D02*
X64842Y-39979D01*
X64842Y-39979D02*
X64917Y-39794D01*
X64917Y-39794D02*
X65157Y-39720D01*
X65157Y-39720D02*
X65157Y-39452D01*
X65157Y-39452D02*
X64937Y-39397D01*
X64937Y-39397D02*
X64858Y-39172D01*
X64858Y-39172D02*
X64964Y-38987D01*
X64964Y-38987D02*
X64779Y-38786D01*
X64779Y-38786D02*
X64575Y-38889D01*
X64575Y-38889D02*
X64390Y-38810D01*
X64390Y-38810D02*
X64323Y-38597D01*
X64323Y-38597D02*
X64051Y-38590D01*
X64051Y-38590D02*
X63968Y-38806D01*
X63968Y-38806D02*
X63803Y-38873D01*
X63803Y-38873D02*
X63586Y-38767D01*
X63586Y-38767D02*
X63382Y-38975D01*
X63382Y-38975D02*
X63480Y-39188D01*
X63480Y-39188D02*
X63413Y-39377D01*
X63413Y-39377D02*
X63197Y-39416D01*
X63197Y-39416D02*
X63193Y-39692D01*
X63193Y-39692D02*
X63413Y-39771D01*
X63413Y-39771D02*
X63468Y-39928D01*
X64311Y-39920D02*
X64429Y-39861D01*
X64429Y-39861D02*
X64508Y-39783D01*
X64508Y-39783D02*
X64567Y-39625D01*
X64567Y-39625D02*
X64567Y-39468D01*
X64567Y-39468D02*
X64508Y-39330D01*
X64508Y-39330D02*
X64330Y-39192D01*
X64330Y-39192D02*
X64153Y-39172D01*
X64153Y-39172D02*
X63996Y-39212D01*
X63996Y-39212D02*
X63838Y-39349D01*
X63838Y-39349D02*
X63779Y-39527D01*
X63779Y-39527D02*
X63799Y-39723D01*
X63799Y-39723D02*
X63897Y-39842D01*
X63897Y-39842D02*
X64035Y-39920D01*
X64035Y-39920D02*
X63897Y-40314D01*
X64311Y-39920D02*
X64468Y-40314D01*
G54D10*
X48759Y-34015D02*
X48956Y-33818D01*
X49665Y-34271D02*
X49665Y-33818D01*
X49665Y-33818D02*
X48759Y-33818D01*
X48759Y-33818D02*
X48759Y-34724D01*
X48759Y-34724D02*
X49665Y-34724D01*
X49665Y-34724D02*
X49665Y-34271D01*
X48759Y-35393D02*
X48956Y-35196D01*
X49665Y-35649D02*
X49665Y-35196D01*
X49665Y-35196D02*
X48759Y-35196D01*
X48759Y-35196D02*
X48759Y-36102D01*
X48759Y-36102D02*
X49665Y-36102D01*
X49665Y-36102D02*
X49665Y-35649D01*
X48759Y-36771D02*
X48956Y-36574D01*
X49665Y-37027D02*
X49665Y-36574D01*
X49665Y-36574D02*
X48759Y-36574D01*
X48759Y-36574D02*
X48759Y-37480D01*
X48759Y-37480D02*
X49665Y-37480D01*
X49665Y-37480D02*
X49665Y-37027D01*
X49665Y-38661D02*
X49468Y-38858D01*
X48759Y-38405D02*
X48759Y-38858D01*
X48759Y-38858D02*
X49665Y-38858D01*
X49665Y-38858D02*
X49665Y-37952D01*
X49665Y-37952D02*
X48759Y-37952D01*
X48759Y-37952D02*
X48759Y-38405D01*
G54D18*
X60229Y-34626D02*
G75*
G03X60229Y-34626I-62J0D01*
G74*
G01*
X61129Y-34288D02*
X61129Y-34688D01*
X60104Y-34288D02*
X60104Y-34688D01*
X61129Y-34688D02*
X60104Y-34688D01*
X60104Y-34288D02*
X61129Y-34288D01*
M02*
