G04 (created by PCBNEW (2013-jul-07)-stable) date ven. 16 mai 2014 11:53:41 CEST*
%MOIN*%
G04 Gerber Fmt 3.4, Leading zero omitted, Abs format*
%FSLAX34Y34*%
G01*
G70*
G90*
G04 APERTURE LIST*
%ADD10C,0.00590551*%
%ADD11C,0.00787402*%
%ADD12R,0.0276X0.0629701*%
%ADD13R,0.0629701X0.0276*%
%ADD14R,0.026X0.061*%
%ADD15R,0.016X0.026*%
%ADD16R,0.035X0.1024*%
%ADD17R,0.045X0.025*%
%ADD18R,0.025X0.045*%
%ADD19R,0.036X0.036*%
%ADD20R,0.0866142X0.0787402*%
%ADD21R,0.0669291X0.0295276*%
%ADD22R,0.0315X0.0394*%
G04 APERTURE END LIST*
G54D10*
X40551Y-31920D02*
G75*
G02X49212Y-28543I8660J-9418D01*
G74*
G01*
X40551Y-31921D02*
X40551Y-50748D01*
G54D11*
X51299Y-32007D02*
G75*
G03X51299Y-32007I-314J0D01*
G74*
G01*
X47755Y-32007D02*
G75*
G03X47755Y-32007I-314J0D01*
G74*
G01*
X68858Y-49803D02*
G75*
G03X68858Y-49803I-511J0D01*
G74*
G01*
X68858Y-32874D02*
G75*
G03X68858Y-32874I-511J0D01*
G74*
G01*
X43188Y-34842D02*
G75*
G03X43188Y-34842I-511J0D01*
G74*
G01*
X43188Y-47834D02*
G75*
G03X43188Y-47834I-511J0D01*
G74*
G01*
G54D10*
X70472Y-54133D02*
X49212Y-54133D01*
X70472Y-28543D02*
X70472Y-54133D01*
X49212Y-28543D02*
X70472Y-28543D01*
X40551Y-50757D02*
G75*
G03X49212Y-54133I8660J9418D01*
G74*
G01*
G54D11*
X51023Y-41338D02*
G75*
G03X51023Y-41338I-1811J0D01*
G74*
G01*
G54D12*
X60807Y-48129D03*
G54D13*
X61574Y-46751D03*
X61574Y-47342D03*
X61574Y-47932D03*
X60039Y-47932D03*
X60039Y-47342D03*
X60039Y-46751D03*
G54D14*
X60916Y-36406D03*
G54D15*
X60606Y-36576D03*
G54D14*
X60296Y-36036D03*
G54D15*
X60346Y-36576D03*
X60606Y-35866D03*
X60866Y-35866D03*
G54D16*
X47763Y-49881D03*
X49263Y-49881D03*
X48763Y-49881D03*
X48263Y-49881D03*
X50263Y-49881D03*
X50763Y-49881D03*
X51263Y-49881D03*
X49763Y-49881D03*
X52763Y-49881D03*
X52263Y-49881D03*
X51763Y-49881D03*
X51763Y-44960D03*
X52263Y-44960D03*
X52763Y-44960D03*
X49763Y-44960D03*
X51263Y-44960D03*
X50763Y-44960D03*
X50263Y-44960D03*
X48263Y-44960D03*
X48763Y-44960D03*
X49263Y-44960D03*
X47763Y-44960D03*
X45251Y-44960D03*
X44751Y-44960D03*
X44251Y-44960D03*
G54D17*
X58956Y-46255D03*
X58956Y-46855D03*
X58169Y-46255D03*
X58169Y-46855D03*
G54D18*
X46747Y-34251D03*
X47347Y-34251D03*
G54D17*
X54291Y-38961D03*
X54291Y-38361D03*
G54D18*
X46747Y-35629D03*
X47347Y-35629D03*
X46747Y-37007D03*
X47347Y-37007D03*
X51599Y-38405D03*
X50999Y-38405D03*
X60329Y-37185D03*
X60929Y-37185D03*
G54D17*
X62145Y-35870D03*
X62145Y-35270D03*
X59685Y-37180D03*
X59685Y-37780D03*
G54D18*
X54660Y-36062D03*
X55260Y-36062D03*
X51668Y-51476D03*
X52268Y-51476D03*
G54D17*
X62401Y-47042D03*
X62401Y-47642D03*
G54D18*
X51963Y-50787D03*
X52563Y-50787D03*
X52751Y-51476D03*
X53351Y-51476D03*
G54D19*
X54995Y-37683D03*
X54295Y-37683D03*
X54645Y-36883D03*
G54D20*
X53728Y-41299D03*
X60996Y-41299D03*
G54D17*
X48425Y-33370D03*
X48425Y-32770D03*
X61437Y-35585D03*
X61437Y-36185D03*
G54D21*
X50196Y-34271D03*
X48228Y-34271D03*
X50196Y-35649D03*
X48228Y-35649D03*
X50196Y-37027D03*
X48228Y-37027D03*
X48228Y-38405D03*
X50196Y-38405D03*
G54D22*
X60629Y-34055D03*
X61004Y-34921D03*
X60254Y-34921D03*
M02*
