M48
;DRILL file {Pcbnew (2013-jul-07)-stable} date ven. 16 mai 2014 11:54:28 CEST
;FORMAT={-:-/ absolute / inch / decimal}
FMAT,2
INCH,TZ
T1C0.010
T2C0.031
T3C0.032
T4C0.052
%
G90
G05
M72
T1
X4.2323Y-4.4331
X4.2717Y-4.2165
X4.3819Y-4.4961
X4.5709Y-4.4961
X4.6457Y-3.4646
X4.6654Y-3.622
X4.7205Y-4.5
X4.7559Y-3.8465
X4.7756Y-4.9134
X4.8228Y-4.4094
X4.8819Y-4.4094
X4.9016Y-3.2677
X4.9803Y-4.3898
X4.9803Y-5.0984
X5.0197Y-4.9016
X5.0256Y-4.3996
X5.0866Y-3.4252
X5.0866Y-3.5669
X5.0866Y-3.7047
X5.1181Y-5.2165
X5.1575Y-4.5866
X5.2264Y-4.9016
X5.2756Y-4.0354
X5.2756Y-4.8228
X5.2953Y-4.8622
X5.2992Y-5.0827
X5.3189Y-4.4961
X5.3642Y-4.2224
X5.5Y-3.8268
X5.5906Y-4.7795
X5.8071Y-4.8622
X5.8169Y-4.7244
X5.8957Y-4.8228
X5.9606Y-3.8937
X6.0669Y-3.7638
X6.0827Y-4.8661
X6.0984Y-4.2165
X6.2126Y-3.4882
X6.2402Y-4.811
X6.3898Y-3.4882
T2
X4.8713Y-3.1772
X4.9713Y-3.1772
X5.3701Y-3.2992
X5.5669Y-3.2992
T3
X4.3299Y-5.1504
X4.4299Y-5.1504
X4.5299Y-5.1504
X4.6299Y-5.1504
X4.7299Y-5.1504
X4.8299Y-5.1504
T4
X5.8585Y-3.1146
X5.8585Y-5.1846
X6.0335Y-3.2346
X6.0335Y-5.0646
X6.4469Y-3.2031
X6.4469Y-5.0331
X6.6219Y-3.0831
X6.6219Y-5.1531
T0
M30
