G04 (created by PCBNEW (2013-jul-07)-stable) date ven. 16 mai 2014 11:53:41 CEST*
%MOIN*%
G04 Gerber Fmt 3.4, Leading zero omitted, Abs format*
%FSLAX34Y34*%
G01*
G70*
G90*
G04 APERTURE LIST*
%ADD10C,0.00590551*%
%ADD11C,0.00787402*%
G04 APERTURE END LIST*
G54D10*
X40551Y-31920D02*
G75*
G02X49212Y-28543I8660J-9418D01*
G74*
G01*
X40551Y-31921D02*
X40551Y-50748D01*
G54D11*
X51299Y-32007D02*
G75*
G03X51299Y-32007I-314J0D01*
G74*
G01*
X47755Y-32007D02*
G75*
G03X47755Y-32007I-314J0D01*
G74*
G01*
X68858Y-49803D02*
G75*
G03X68858Y-49803I-511J0D01*
G74*
G01*
X68858Y-32874D02*
G75*
G03X68858Y-32874I-511J0D01*
G74*
G01*
X43188Y-34842D02*
G75*
G03X43188Y-34842I-511J0D01*
G74*
G01*
X43188Y-47834D02*
G75*
G03X43188Y-47834I-511J0D01*
G74*
G01*
G54D10*
X70472Y-54133D02*
X49212Y-54133D01*
X70472Y-28543D02*
X70472Y-54133D01*
X49212Y-28543D02*
X70472Y-28543D01*
X40551Y-50757D02*
G75*
G03X49212Y-54133I8660J9418D01*
G74*
G01*
G54D11*
X51023Y-41338D02*
G75*
G03X51023Y-41338I-1811J0D01*
G74*
G01*
G54D10*
G36*
X43634Y-51839D02*
X42963Y-51839D01*
X42963Y-51168D01*
X43634Y-51168D01*
X43634Y-51839D01*
X43634Y-51839D01*
G37*
G36*
X44634Y-51839D02*
X43963Y-51839D01*
X43963Y-51168D01*
X44634Y-51168D01*
X44634Y-51839D01*
X44634Y-51839D01*
G37*
G36*
X45634Y-51839D02*
X44963Y-51839D01*
X44963Y-51168D01*
X45634Y-51168D01*
X45634Y-51839D01*
X45634Y-51839D01*
G37*
G36*
X46634Y-51839D02*
X45963Y-51839D01*
X45963Y-51168D01*
X46634Y-51168D01*
X46634Y-51839D01*
X46634Y-51839D01*
G37*
G36*
X47634Y-51839D02*
X46963Y-51839D01*
X46963Y-51168D01*
X47634Y-51168D01*
X47634Y-51839D01*
X47634Y-51839D01*
G37*
G36*
X48634Y-51839D02*
X47963Y-51839D01*
X47963Y-51168D01*
X48634Y-51168D01*
X48634Y-51839D01*
X48634Y-51839D01*
G37*
G36*
X49106Y-31734D02*
X49105Y-31819D01*
X49087Y-31897D01*
X49057Y-31965D01*
X49011Y-32031D01*
X48957Y-32082D01*
X48889Y-32125D01*
X48820Y-32152D01*
X48741Y-32166D01*
X48667Y-32164D01*
X48588Y-32147D01*
X48520Y-32117D01*
X48454Y-32072D01*
X48403Y-32018D01*
X48359Y-31951D01*
X48332Y-31882D01*
X48318Y-31803D01*
X48319Y-31729D01*
X48335Y-31650D01*
X48364Y-31582D01*
X48410Y-31515D01*
X48463Y-31464D01*
X48530Y-31420D01*
X48599Y-31392D01*
X48678Y-31377D01*
X48752Y-31377D01*
X48831Y-31394D01*
X48899Y-31422D01*
X48966Y-31467D01*
X49018Y-31520D01*
X49062Y-31587D01*
X49090Y-31655D01*
X49106Y-31734D01*
X49106Y-31734D01*
G37*
G36*
X49645Y-34230D02*
X49644Y-34324D01*
X49625Y-34410D01*
X49591Y-34485D01*
X49541Y-34557D01*
X49481Y-34613D01*
X49407Y-34660D01*
X49331Y-34690D01*
X49244Y-34705D01*
X49162Y-34704D01*
X49076Y-34685D01*
X49001Y-34652D01*
X48929Y-34602D01*
X48872Y-34543D01*
X48824Y-34469D01*
X48794Y-34393D01*
X48778Y-34306D01*
X48779Y-34224D01*
X48798Y-34138D01*
X48830Y-34063D01*
X48880Y-33990D01*
X48938Y-33933D01*
X49012Y-33885D01*
X49087Y-33854D01*
X49174Y-33837D01*
X49256Y-33838D01*
X49343Y-33856D01*
X49418Y-33887D01*
X49491Y-33937D01*
X49548Y-33995D01*
X49597Y-34068D01*
X49628Y-34143D01*
X49645Y-34229D01*
X49645Y-34230D01*
X49645Y-34230D01*
G37*
G36*
X49645Y-35608D02*
X49644Y-35702D01*
X49625Y-35788D01*
X49591Y-35863D01*
X49541Y-35935D01*
X49481Y-35991D01*
X49407Y-36038D01*
X49331Y-36068D01*
X49244Y-36083D01*
X49162Y-36082D01*
X49076Y-36063D01*
X49001Y-36030D01*
X48929Y-35980D01*
X48872Y-35921D01*
X48824Y-35847D01*
X48794Y-35771D01*
X48778Y-35684D01*
X48779Y-35602D01*
X48798Y-35516D01*
X48830Y-35441D01*
X48880Y-35368D01*
X48938Y-35311D01*
X49012Y-35262D01*
X49087Y-35232D01*
X49174Y-35215D01*
X49256Y-35216D01*
X49343Y-35234D01*
X49418Y-35265D01*
X49491Y-35315D01*
X49548Y-35373D01*
X49597Y-35446D01*
X49628Y-35521D01*
X49645Y-35607D01*
X49645Y-35608D01*
X49645Y-35608D01*
G37*
G36*
X49645Y-36986D02*
X49644Y-37080D01*
X49625Y-37166D01*
X49591Y-37241D01*
X49541Y-37313D01*
X49481Y-37369D01*
X49407Y-37416D01*
X49331Y-37446D01*
X49244Y-37461D01*
X49162Y-37459D01*
X49076Y-37441D01*
X49001Y-37408D01*
X48929Y-37358D01*
X48872Y-37299D01*
X48824Y-37225D01*
X48794Y-37149D01*
X48778Y-37062D01*
X48779Y-36980D01*
X48798Y-36894D01*
X48830Y-36819D01*
X48880Y-36746D01*
X48938Y-36689D01*
X49012Y-36640D01*
X49087Y-36610D01*
X49174Y-36593D01*
X49256Y-36594D01*
X49343Y-36612D01*
X49418Y-36643D01*
X49491Y-36693D01*
X49548Y-36750D01*
X49597Y-36824D01*
X49628Y-36899D01*
X49645Y-36985D01*
X49645Y-36986D01*
X49645Y-36986D01*
G37*
G36*
X49645Y-38364D02*
X49644Y-38458D01*
X49625Y-38544D01*
X49591Y-38619D01*
X49541Y-38691D01*
X49481Y-38747D01*
X49407Y-38794D01*
X49331Y-38824D01*
X49244Y-38839D01*
X49162Y-38837D01*
X49076Y-38819D01*
X49001Y-38786D01*
X48929Y-38735D01*
X48872Y-38677D01*
X48824Y-38603D01*
X48794Y-38527D01*
X48778Y-38440D01*
X48779Y-38358D01*
X48798Y-38272D01*
X48830Y-38197D01*
X48880Y-38124D01*
X48938Y-38067D01*
X49012Y-38018D01*
X49087Y-37988D01*
X49174Y-37971D01*
X49256Y-37972D01*
X49343Y-37990D01*
X49418Y-38021D01*
X49491Y-38071D01*
X49548Y-38128D01*
X49597Y-38202D01*
X49628Y-38277D01*
X49645Y-38363D01*
X49645Y-38364D01*
X49645Y-38364D01*
G37*
G36*
X50106Y-31734D02*
X50105Y-31819D01*
X50087Y-31897D01*
X50057Y-31965D01*
X50011Y-32031D01*
X49957Y-32082D01*
X49889Y-32125D01*
X49820Y-32152D01*
X49741Y-32166D01*
X49667Y-32164D01*
X49588Y-32147D01*
X49520Y-32117D01*
X49454Y-32072D01*
X49403Y-32018D01*
X49359Y-31951D01*
X49332Y-31882D01*
X49318Y-31803D01*
X49319Y-31729D01*
X49335Y-31650D01*
X49364Y-31582D01*
X49410Y-31515D01*
X49463Y-31464D01*
X49530Y-31420D01*
X49599Y-31392D01*
X49678Y-31377D01*
X49752Y-31377D01*
X49831Y-31394D01*
X49899Y-31422D01*
X49966Y-31467D01*
X50018Y-31520D01*
X50062Y-31587D01*
X50090Y-31655D01*
X50106Y-31734D01*
X50106Y-31734D01*
G37*
G36*
X54134Y-32951D02*
X54132Y-33045D01*
X54113Y-33130D01*
X54079Y-33205D01*
X54029Y-33277D01*
X53969Y-33334D01*
X53895Y-33381D01*
X53819Y-33411D01*
X53732Y-33426D01*
X53650Y-33424D01*
X53564Y-33405D01*
X53489Y-33372D01*
X53417Y-33322D01*
X53360Y-33263D01*
X53312Y-33189D01*
X53282Y-33113D01*
X53266Y-33026D01*
X53267Y-32945D01*
X53286Y-32858D01*
X53318Y-32783D01*
X53368Y-32710D01*
X53426Y-32653D01*
X53500Y-32605D01*
X53576Y-32574D01*
X53663Y-32558D01*
X53744Y-32558D01*
X53831Y-32576D01*
X53906Y-32608D01*
X53979Y-32657D01*
X54036Y-32715D01*
X54086Y-32789D01*
X54117Y-32864D01*
X54133Y-32949D01*
X54134Y-32951D01*
X54134Y-32951D01*
G37*
G36*
X56102Y-32951D02*
X56101Y-33045D01*
X56081Y-33130D01*
X56048Y-33205D01*
X55997Y-33277D01*
X55938Y-33334D01*
X55864Y-33381D01*
X55787Y-33411D01*
X55701Y-33426D01*
X55619Y-33424D01*
X55533Y-33405D01*
X55458Y-33372D01*
X55385Y-33322D01*
X55329Y-33263D01*
X55281Y-33189D01*
X55251Y-33113D01*
X55235Y-33026D01*
X55236Y-32945D01*
X55254Y-32858D01*
X55286Y-32783D01*
X55336Y-32710D01*
X55395Y-32653D01*
X55469Y-32605D01*
X55544Y-32574D01*
X55631Y-32558D01*
X55713Y-32558D01*
X55799Y-32576D01*
X55874Y-32608D01*
X55948Y-32657D01*
X56005Y-32715D01*
X56054Y-32789D01*
X56085Y-32864D01*
X56102Y-32949D01*
X56102Y-32951D01*
X56102Y-32951D01*
G37*
G36*
X59214Y-31775D02*
X57954Y-31775D01*
X57954Y-30515D01*
X59214Y-30515D01*
X59214Y-31775D01*
X59214Y-31775D01*
G37*
G36*
X59214Y-52476D02*
X57954Y-52476D01*
X57954Y-51216D01*
X59214Y-51216D01*
X59214Y-52476D01*
X59214Y-52476D01*
G37*
G36*
X60964Y-32976D02*
X59704Y-32976D01*
X59704Y-31716D01*
X60964Y-31716D01*
X60964Y-32976D01*
X60964Y-32976D01*
G37*
G36*
X60964Y-51275D02*
X59704Y-51275D01*
X59704Y-50015D01*
X60964Y-50015D01*
X60964Y-51275D01*
X60964Y-51275D01*
G37*
G36*
X62384Y-31117D02*
X62383Y-31181D01*
X62369Y-31241D01*
X62346Y-31293D01*
X62311Y-31343D01*
X62270Y-31381D01*
X62218Y-31414D01*
X62166Y-31434D01*
X62106Y-31445D01*
X62050Y-31444D01*
X61990Y-31431D01*
X61939Y-31409D01*
X61888Y-31373D01*
X61849Y-31333D01*
X61816Y-31281D01*
X61795Y-31230D01*
X61784Y-31169D01*
X61785Y-31113D01*
X61798Y-31053D01*
X61820Y-31002D01*
X61855Y-30950D01*
X61894Y-30912D01*
X61946Y-30878D01*
X61998Y-30857D01*
X62059Y-30845D01*
X62114Y-30846D01*
X62175Y-30858D01*
X62226Y-30880D01*
X62277Y-30915D01*
X62316Y-30954D01*
X62351Y-31006D01*
X62372Y-31056D01*
X62383Y-31116D01*
X62384Y-31117D01*
X62384Y-31117D01*
G37*
G36*
X62384Y-51818D02*
X62383Y-51882D01*
X62369Y-51942D01*
X62346Y-51993D01*
X62311Y-52044D01*
X62270Y-52082D01*
X62218Y-52115D01*
X62166Y-52135D01*
X62106Y-52146D01*
X62050Y-52145D01*
X61990Y-52132D01*
X61939Y-52109D01*
X61888Y-52074D01*
X61849Y-52034D01*
X61816Y-51982D01*
X61795Y-51930D01*
X61784Y-51869D01*
X61785Y-51814D01*
X61798Y-51753D01*
X61820Y-51703D01*
X61855Y-51651D01*
X61894Y-51613D01*
X61946Y-51579D01*
X61998Y-51558D01*
X62059Y-51546D01*
X62114Y-51547D01*
X62175Y-51559D01*
X62226Y-51580D01*
X62277Y-51615D01*
X62316Y-51654D01*
X62351Y-51706D01*
X62372Y-51757D01*
X62383Y-51817D01*
X62384Y-51818D01*
X62384Y-51818D01*
G37*
G36*
X63018Y-30802D02*
X63017Y-30867D01*
X63003Y-30927D01*
X62980Y-30978D01*
X62945Y-31028D01*
X62904Y-31066D01*
X62852Y-31099D01*
X62800Y-31120D01*
X62740Y-31130D01*
X62684Y-31129D01*
X62624Y-31116D01*
X62573Y-31094D01*
X62522Y-31058D01*
X62483Y-31018D01*
X62450Y-30966D01*
X62429Y-30915D01*
X62418Y-30854D01*
X62419Y-30798D01*
X62432Y-30738D01*
X62454Y-30687D01*
X62489Y-30636D01*
X62528Y-30597D01*
X62580Y-30563D01*
X62631Y-30542D01*
X62693Y-30530D01*
X62748Y-30531D01*
X62809Y-30543D01*
X62859Y-30565D01*
X62911Y-30600D01*
X62950Y-30639D01*
X62985Y-30691D01*
X63005Y-30741D01*
X63017Y-30801D01*
X63018Y-30802D01*
X63018Y-30802D01*
G37*
G36*
X63018Y-51503D02*
X63017Y-51567D01*
X63003Y-51627D01*
X62980Y-51678D01*
X62945Y-51729D01*
X62904Y-51767D01*
X62852Y-51800D01*
X62800Y-51820D01*
X62740Y-51831D01*
X62684Y-51830D01*
X62624Y-51817D01*
X62573Y-51794D01*
X62522Y-51759D01*
X62483Y-51719D01*
X62450Y-51667D01*
X62429Y-51615D01*
X62418Y-51555D01*
X62419Y-51499D01*
X62432Y-51438D01*
X62454Y-51388D01*
X62489Y-51336D01*
X62528Y-51298D01*
X62580Y-51264D01*
X62631Y-51243D01*
X62693Y-51231D01*
X62748Y-51232D01*
X62809Y-51244D01*
X62859Y-51265D01*
X62911Y-51300D01*
X62950Y-51339D01*
X62985Y-51391D01*
X63005Y-51442D01*
X63017Y-51502D01*
X63018Y-51503D01*
X63018Y-51503D01*
G37*
G36*
X65098Y-32661D02*
X63838Y-32661D01*
X63838Y-31401D01*
X65098Y-31401D01*
X65098Y-32661D01*
X65098Y-32661D01*
G37*
G36*
X65098Y-50961D02*
X63838Y-50961D01*
X63838Y-49700D01*
X65098Y-49700D01*
X65098Y-50961D01*
X65098Y-50961D01*
G37*
G36*
X66848Y-31461D02*
X65588Y-31461D01*
X65588Y-30200D01*
X66848Y-30200D01*
X66848Y-31461D01*
X66848Y-31461D01*
G37*
G36*
X66848Y-52161D02*
X65588Y-52161D01*
X65588Y-50901D01*
X66848Y-50901D01*
X66848Y-52161D01*
X66848Y-52161D01*
G37*
M02*
