G04 (created by PCBNEW (2013-jul-07)-stable) date ven. 16 mai 2014 11:53:41 CEST*
%MOIN*%
G04 Gerber Fmt 3.4, Leading zero omitted, Abs format*
%FSLAX34Y34*%
G01*
G70*
G90*
G04 APERTURE LIST*
%ADD10C,0.00590551*%
%ADD11C,0.00787402*%
%ADD12R,0.11811X0.11811*%
%ADD13C,0.0708661*%
%ADD14R,0.0591X0.0591*%
%ADD15C,0.0787402*%
%ADD16C,0.0255906*%
%ADD17C,0.019685*%
%ADD18C,0.01*%
%ADD19C,0.015748*%
%ADD20C,0.023622*%
G04 APERTURE END LIST*
G54D10*
X40551Y-31920D02*
G75*
G02X49212Y-28543I8660J-9418D01*
G74*
G01*
X40551Y-31921D02*
X40551Y-50748D01*
G54D11*
X51299Y-32007D02*
G75*
G03X51299Y-32007I-314J0D01*
G74*
G01*
X47755Y-32007D02*
G75*
G03X47755Y-32007I-314J0D01*
G74*
G01*
X68858Y-49803D02*
G75*
G03X68858Y-49803I-511J0D01*
G74*
G01*
X68858Y-32874D02*
G75*
G03X68858Y-32874I-511J0D01*
G74*
G01*
X43188Y-34842D02*
G75*
G03X43188Y-34842I-511J0D01*
G74*
G01*
X43188Y-47834D02*
G75*
G03X43188Y-47834I-511J0D01*
G74*
G01*
G54D10*
X70472Y-54133D02*
X49212Y-54133D01*
X70472Y-28543D02*
X70472Y-54133D01*
X49212Y-28543D02*
X70472Y-28543D01*
X40551Y-50757D02*
G75*
G03X49212Y-54133I8660J9418D01*
G74*
G01*
G54D11*
X51023Y-41338D02*
G75*
G03X51023Y-41338I-1811J0D01*
G74*
G01*
G54D12*
X58584Y-51846D03*
X58584Y-31145D03*
X60334Y-50645D03*
X60334Y-32346D03*
X66218Y-30830D03*
X66218Y-51531D03*
X64468Y-32031D03*
X64468Y-50330D03*
G54D13*
X48712Y-31771D03*
X49712Y-31771D03*
G54D14*
X45299Y-51503D03*
X43299Y-51503D03*
X46299Y-51503D03*
X48299Y-51503D03*
X47299Y-51503D03*
X44299Y-51503D03*
G54D15*
X53700Y-32992D03*
X55669Y-32992D03*
G54D16*
X46653Y-36220D03*
X48818Y-44094D03*
X46456Y-34645D03*
X48228Y-44094D03*
X49015Y-32677D03*
X52755Y-40354D03*
X52263Y-49015D03*
X53641Y-42224D03*
X51574Y-45866D03*
X58070Y-48622D03*
X52952Y-48622D03*
X58169Y-47244D03*
X58956Y-48228D03*
X52755Y-48228D03*
X59606Y-38937D03*
X50255Y-43996D03*
X60669Y-37637D03*
X49803Y-43897D03*
X49803Y-50984D03*
X50196Y-49015D03*
X51181Y-52165D03*
X62401Y-48110D03*
X60826Y-48661D03*
X63897Y-34881D03*
X62125Y-34881D03*
X55000Y-38267D03*
X50866Y-34251D03*
X50866Y-35669D03*
X50866Y-37047D03*
X47559Y-38464D03*
X60984Y-42165D03*
X55905Y-47795D03*
X53188Y-44960D03*
X52992Y-50826D03*
X47755Y-49133D03*
X47204Y-45000D03*
X42716Y-42165D03*
X45708Y-44960D03*
X43818Y-44960D03*
X42322Y-44330D03*
G54D17*
X46653Y-42125D02*
X46653Y-36220D01*
X48228Y-43700D02*
X46653Y-42125D01*
X48425Y-43700D02*
X48228Y-43700D01*
X48818Y-44094D02*
X48425Y-43700D01*
X46259Y-34842D02*
X46456Y-34645D01*
X46259Y-42519D02*
X46259Y-34842D01*
X47834Y-44094D02*
X46259Y-42519D01*
X48228Y-44094D02*
X47834Y-44094D01*
G54D18*
X50000Y-32677D02*
X49015Y-32677D01*
X52755Y-35433D02*
X50000Y-32677D01*
X52755Y-40354D02*
X52755Y-35433D01*
X52263Y-43602D02*
X52263Y-49015D01*
X53641Y-42224D02*
X52263Y-43602D01*
X46299Y-51141D02*
X46299Y-51503D01*
X51574Y-45866D02*
X46299Y-51141D01*
X52952Y-48622D02*
X58070Y-48622D01*
X58169Y-47244D02*
X58169Y-48228D01*
X52755Y-48228D02*
X58169Y-48228D01*
X58169Y-48228D02*
X58956Y-48228D01*
X58956Y-38937D02*
X59606Y-38937D01*
X58956Y-38937D02*
X58897Y-38937D01*
X55314Y-38937D02*
X58858Y-38937D01*
X58858Y-38937D02*
X58956Y-38937D01*
X50255Y-43996D02*
X55314Y-38937D01*
X59724Y-38582D02*
X58582Y-38582D01*
X60669Y-37637D02*
X59724Y-38582D01*
X55118Y-38582D02*
X49803Y-43897D01*
X55118Y-38582D02*
X58582Y-38582D01*
X58582Y-38582D02*
X58661Y-38582D01*
G54D19*
X45299Y-51503D02*
X45299Y-50960D01*
X45299Y-50960D02*
X49803Y-46456D01*
X49803Y-46456D02*
X49803Y-43897D01*
G54D18*
X49283Y-51503D02*
X48299Y-51503D01*
X49803Y-50984D02*
X49283Y-51503D01*
X47299Y-51503D02*
X47299Y-51322D01*
X49606Y-49015D02*
X50196Y-49015D01*
X47299Y-51322D02*
X49606Y-49015D01*
G54D20*
X44299Y-52173D02*
X44299Y-51503D01*
X44488Y-52362D02*
X44299Y-52173D01*
X50984Y-52362D02*
X44488Y-52362D01*
X51181Y-52165D02*
X50984Y-52362D01*
G54D10*
G36*
X70192Y-53854D02*
X69142Y-53854D01*
X69142Y-49859D01*
X69142Y-49803D01*
X69142Y-49746D01*
X69142Y-32930D01*
X69142Y-32874D01*
X69142Y-32817D01*
X69142Y-32817D01*
X69142Y-32817D01*
X69103Y-32621D01*
X69059Y-32517D01*
X69059Y-32516D01*
X68949Y-32351D01*
X68948Y-32350D01*
X68869Y-32271D01*
X68702Y-32160D01*
X68598Y-32117D01*
X68597Y-32117D01*
X68403Y-32078D01*
X68402Y-32078D01*
X68289Y-32078D01*
X68093Y-32117D01*
X67989Y-32160D01*
X67988Y-32161D01*
X67824Y-32271D01*
X67823Y-32271D01*
X67743Y-32351D01*
X67632Y-32517D01*
X67589Y-32621D01*
X67589Y-32622D01*
X67550Y-32817D01*
X67550Y-32817D01*
X67550Y-32817D01*
X67550Y-32874D01*
X67550Y-32930D01*
X67550Y-32930D01*
X67550Y-32930D01*
X67589Y-33125D01*
X67589Y-33126D01*
X67632Y-33230D01*
X67743Y-33396D01*
X67823Y-33476D01*
X67824Y-33476D01*
X67988Y-33586D01*
X67989Y-33587D01*
X68093Y-33630D01*
X68289Y-33669D01*
X68402Y-33669D01*
X68403Y-33669D01*
X68597Y-33630D01*
X68598Y-33630D01*
X68702Y-33587D01*
X68869Y-33476D01*
X68948Y-33397D01*
X68949Y-33396D01*
X69059Y-33231D01*
X69059Y-33230D01*
X69103Y-33126D01*
X69142Y-32930D01*
X69142Y-32930D01*
X69142Y-32930D01*
X69142Y-49746D01*
X69142Y-49746D01*
X69142Y-49746D01*
X69103Y-49550D01*
X69059Y-49446D01*
X69059Y-49445D01*
X68949Y-49280D01*
X68948Y-49280D01*
X68869Y-49200D01*
X68702Y-49089D01*
X68598Y-49046D01*
X68597Y-49046D01*
X68403Y-49007D01*
X68402Y-49007D01*
X68289Y-49007D01*
X68093Y-49046D01*
X67989Y-49089D01*
X67988Y-49090D01*
X67824Y-49200D01*
X67823Y-49200D01*
X67743Y-49280D01*
X67632Y-49446D01*
X67589Y-49551D01*
X67589Y-49551D01*
X67550Y-49746D01*
X67550Y-49746D01*
X67550Y-49746D01*
X67550Y-49803D01*
X67550Y-49859D01*
X67550Y-49859D01*
X67550Y-49859D01*
X67589Y-50054D01*
X67589Y-50055D01*
X67632Y-50159D01*
X67743Y-50325D01*
X67823Y-50405D01*
X67824Y-50405D01*
X67988Y-50515D01*
X67989Y-50516D01*
X68093Y-50559D01*
X68289Y-50598D01*
X68402Y-50598D01*
X68403Y-50598D01*
X68597Y-50559D01*
X68598Y-50559D01*
X68702Y-50516D01*
X68869Y-50405D01*
X68948Y-50326D01*
X68949Y-50325D01*
X69059Y-50160D01*
X69059Y-50159D01*
X69103Y-50055D01*
X69142Y-49859D01*
X69142Y-49859D01*
X69142Y-49859D01*
X69142Y-53854D01*
X67059Y-53854D01*
X67059Y-52072D01*
X67059Y-50891D01*
X67059Y-31371D01*
X67059Y-30289D01*
X67059Y-30190D01*
X67020Y-30098D01*
X66950Y-30028D01*
X66858Y-29990D01*
X66331Y-29990D01*
X66268Y-30052D01*
X66268Y-30780D01*
X66996Y-30780D01*
X67059Y-30718D01*
X67059Y-30289D01*
X67059Y-31371D01*
X67059Y-30943D01*
X66996Y-30880D01*
X66268Y-30880D01*
X66268Y-31608D01*
X66331Y-31671D01*
X66858Y-31671D01*
X66950Y-31633D01*
X67020Y-31563D01*
X67059Y-31471D01*
X67059Y-31371D01*
X67059Y-50891D01*
X67021Y-50799D01*
X66950Y-50729D01*
X66859Y-50690D01*
X66759Y-50690D01*
X66168Y-50690D01*
X66168Y-31608D01*
X66168Y-30880D01*
X66168Y-30780D01*
X66168Y-30052D01*
X66106Y-29990D01*
X65578Y-29990D01*
X65486Y-30028D01*
X65416Y-30098D01*
X65377Y-30190D01*
X65377Y-30289D01*
X65377Y-30718D01*
X65440Y-30780D01*
X66168Y-30780D01*
X66168Y-30880D01*
X65440Y-30880D01*
X65377Y-30943D01*
X65377Y-31371D01*
X65377Y-31471D01*
X65416Y-31563D01*
X65486Y-31633D01*
X65578Y-31671D01*
X66106Y-31671D01*
X66168Y-31608D01*
X66168Y-50690D01*
X65578Y-50690D01*
X65486Y-50728D01*
X65416Y-50799D01*
X65377Y-50890D01*
X65377Y-50990D01*
X65377Y-52171D01*
X65415Y-52263D01*
X65486Y-52333D01*
X65578Y-52372D01*
X65677Y-52372D01*
X66858Y-52372D01*
X66950Y-52334D01*
X67020Y-52263D01*
X67059Y-52171D01*
X67059Y-52072D01*
X67059Y-53854D01*
X65309Y-53854D01*
X65309Y-50871D01*
X65309Y-49690D01*
X65309Y-32572D01*
X65309Y-31490D01*
X65309Y-31390D01*
X65270Y-31299D01*
X65200Y-31228D01*
X65108Y-31190D01*
X64581Y-31190D01*
X64518Y-31253D01*
X64518Y-31981D01*
X65246Y-31981D01*
X65309Y-31918D01*
X65309Y-31490D01*
X65309Y-32572D01*
X65309Y-32143D01*
X65246Y-32081D01*
X64518Y-32081D01*
X64518Y-32809D01*
X64581Y-32872D01*
X65108Y-32872D01*
X65200Y-32834D01*
X65270Y-32763D01*
X65309Y-32671D01*
X65309Y-32572D01*
X65309Y-49690D01*
X65271Y-49598D01*
X65200Y-49528D01*
X65109Y-49490D01*
X65009Y-49490D01*
X64418Y-49490D01*
X64418Y-32809D01*
X64418Y-32081D01*
X64418Y-31981D01*
X64418Y-31253D01*
X64356Y-31190D01*
X63828Y-31190D01*
X63736Y-31228D01*
X63666Y-31299D01*
X63627Y-31390D01*
X63627Y-31490D01*
X63627Y-31918D01*
X63690Y-31981D01*
X64418Y-31981D01*
X64418Y-32081D01*
X63690Y-32081D01*
X63627Y-32143D01*
X63627Y-32572D01*
X63627Y-32671D01*
X63666Y-32763D01*
X63736Y-32834D01*
X63828Y-32872D01*
X64356Y-32872D01*
X64418Y-32809D01*
X64418Y-49490D01*
X63828Y-49490D01*
X63736Y-49528D01*
X63666Y-49598D01*
X63627Y-49690D01*
X63627Y-49789D01*
X63627Y-50970D01*
X63665Y-51062D01*
X63736Y-51133D01*
X63828Y-51171D01*
X63927Y-51171D01*
X65108Y-51171D01*
X65200Y-51133D01*
X65270Y-51063D01*
X65309Y-50971D01*
X65309Y-50871D01*
X65309Y-53854D01*
X63228Y-53854D01*
X63228Y-51430D01*
X63228Y-30729D01*
X63150Y-30542D01*
X63007Y-30398D01*
X62820Y-30320D01*
X62617Y-30320D01*
X62430Y-30398D01*
X62286Y-30541D01*
X62238Y-30657D01*
X62186Y-30635D01*
X61983Y-30635D01*
X61796Y-30713D01*
X61652Y-30856D01*
X61574Y-31043D01*
X61574Y-31246D01*
X61652Y-31434D01*
X61795Y-31577D01*
X61982Y-31655D01*
X62185Y-31655D01*
X62373Y-31578D01*
X62516Y-31434D01*
X62564Y-31318D01*
X62616Y-31340D01*
X62819Y-31340D01*
X63006Y-31263D01*
X63150Y-31119D01*
X63228Y-30932D01*
X63228Y-30729D01*
X63228Y-51430D01*
X63150Y-51243D01*
X63007Y-51099D01*
X62820Y-51021D01*
X62617Y-51021D01*
X62430Y-51099D01*
X62286Y-51242D01*
X62238Y-51358D01*
X62186Y-51336D01*
X61983Y-51336D01*
X61796Y-51413D01*
X61652Y-51557D01*
X61574Y-51744D01*
X61574Y-51947D01*
X61652Y-52134D01*
X61795Y-52278D01*
X61982Y-52356D01*
X62185Y-52356D01*
X62373Y-52278D01*
X62516Y-52135D01*
X62564Y-52019D01*
X62616Y-52041D01*
X62819Y-52041D01*
X63006Y-51963D01*
X63150Y-51820D01*
X63228Y-51633D01*
X63228Y-51430D01*
X63228Y-53854D01*
X61175Y-53854D01*
X61175Y-51186D01*
X61175Y-50005D01*
X61175Y-32887D01*
X61175Y-31706D01*
X61137Y-31614D01*
X61066Y-31544D01*
X60975Y-31505D01*
X60875Y-31505D01*
X59694Y-31505D01*
X59602Y-31543D01*
X59532Y-31614D01*
X59494Y-31705D01*
X59494Y-31805D01*
X59494Y-32986D01*
X59532Y-33078D01*
X59602Y-33148D01*
X59694Y-33186D01*
X59793Y-33187D01*
X60974Y-33187D01*
X61066Y-33149D01*
X61137Y-33078D01*
X61175Y-32986D01*
X61175Y-32887D01*
X61175Y-50005D01*
X61137Y-49913D01*
X61066Y-49843D01*
X61047Y-49835D01*
X61047Y-37562D01*
X60989Y-37423D01*
X60883Y-37317D01*
X60744Y-37259D01*
X60594Y-37259D01*
X60455Y-37317D01*
X60349Y-37423D01*
X60291Y-37562D01*
X60291Y-37591D01*
X59600Y-38282D01*
X59425Y-38282D01*
X59425Y-31686D01*
X59425Y-30505D01*
X59387Y-30413D01*
X59316Y-30343D01*
X59225Y-30305D01*
X59125Y-30305D01*
X57944Y-30305D01*
X57852Y-30343D01*
X57782Y-30413D01*
X57744Y-30505D01*
X57744Y-30604D01*
X57744Y-31785D01*
X57782Y-31877D01*
X57852Y-31948D01*
X57944Y-31986D01*
X58043Y-31986D01*
X59224Y-31986D01*
X59316Y-31948D01*
X59387Y-31878D01*
X59425Y-31786D01*
X59425Y-31686D01*
X59425Y-38282D01*
X58661Y-38282D01*
X58582Y-38282D01*
X56313Y-38282D01*
X56313Y-32864D01*
X56215Y-32627D01*
X56034Y-32446D01*
X55797Y-32348D01*
X55541Y-32348D01*
X55305Y-32446D01*
X55123Y-32627D01*
X55025Y-32863D01*
X55025Y-33119D01*
X55123Y-33356D01*
X55304Y-33537D01*
X55540Y-33635D01*
X55796Y-33635D01*
X56033Y-33538D01*
X56214Y-33357D01*
X56312Y-33120D01*
X56313Y-32864D01*
X56313Y-38282D01*
X55118Y-38282D01*
X55003Y-38305D01*
X54905Y-38370D01*
X54344Y-38931D01*
X54344Y-32864D01*
X54246Y-32627D01*
X54065Y-32446D01*
X53829Y-32348D01*
X53573Y-32348D01*
X53336Y-32446D01*
X53155Y-32627D01*
X53057Y-32863D01*
X53056Y-33119D01*
X53154Y-33356D01*
X53335Y-33537D01*
X53572Y-33635D01*
X53828Y-33635D01*
X54064Y-33538D01*
X54246Y-33357D01*
X54344Y-33120D01*
X54344Y-32864D01*
X54344Y-38931D01*
X53093Y-40182D01*
X53076Y-40140D01*
X53055Y-40119D01*
X53055Y-35433D01*
X53055Y-35433D01*
X53033Y-35318D01*
X52968Y-35220D01*
X52968Y-35220D01*
X51582Y-33835D01*
X51582Y-32064D01*
X51582Y-32007D01*
X51582Y-31951D01*
X51582Y-31951D01*
X51582Y-31951D01*
X51582Y-31951D01*
X51559Y-31831D01*
X51559Y-31831D01*
X51559Y-31830D01*
X51515Y-31726D01*
X51447Y-31624D01*
X51367Y-31544D01*
X51367Y-31544D01*
X51265Y-31476D01*
X51265Y-31476D01*
X51265Y-31476D01*
X51161Y-31432D01*
X51040Y-31409D01*
X50927Y-31409D01*
X50927Y-31409D01*
X50807Y-31433D01*
X50807Y-31433D01*
X50806Y-31433D01*
X50702Y-31476D01*
X50600Y-31544D01*
X50520Y-31624D01*
X50520Y-31625D01*
X50452Y-31726D01*
X50452Y-31726D01*
X50452Y-31726D01*
X50409Y-31831D01*
X50385Y-31951D01*
X50385Y-32007D01*
X50385Y-32064D01*
X50409Y-32184D01*
X50452Y-32288D01*
X50452Y-32289D01*
X50452Y-32289D01*
X50520Y-32390D01*
X50520Y-32391D01*
X50600Y-32471D01*
X50702Y-32539D01*
X50806Y-32582D01*
X50807Y-32582D01*
X50807Y-32582D01*
X50927Y-32606D01*
X50927Y-32606D01*
X51040Y-32606D01*
X51161Y-32582D01*
X51265Y-32539D01*
X51265Y-32539D01*
X51265Y-32539D01*
X51367Y-32471D01*
X51367Y-32471D01*
X51447Y-32391D01*
X51515Y-32289D01*
X51559Y-32185D01*
X51559Y-32184D01*
X51559Y-32184D01*
X51582Y-32064D01*
X51582Y-32064D01*
X51582Y-32064D01*
X51582Y-32064D01*
X51582Y-33835D01*
X50321Y-32574D01*
X50321Y-31866D01*
X50311Y-31626D01*
X50238Y-31451D01*
X50137Y-31417D01*
X50067Y-31487D01*
X50067Y-31346D01*
X50033Y-31245D01*
X49807Y-31162D01*
X49567Y-31172D01*
X49392Y-31245D01*
X49358Y-31346D01*
X49712Y-31700D01*
X50067Y-31346D01*
X50067Y-31487D01*
X49783Y-31771D01*
X50137Y-32126D01*
X50238Y-32092D01*
X50321Y-31866D01*
X50321Y-32574D01*
X50212Y-32465D01*
X50114Y-32400D01*
X50000Y-32377D01*
X49697Y-32377D01*
X49858Y-32370D01*
X50033Y-32297D01*
X50067Y-32196D01*
X49712Y-31842D01*
X49358Y-32196D01*
X49392Y-32297D01*
X49608Y-32377D01*
X49250Y-32377D01*
X49230Y-32356D01*
X49091Y-32299D01*
X49018Y-32299D01*
X49054Y-32284D01*
X49224Y-32114D01*
X49228Y-32106D01*
X49287Y-32126D01*
X49641Y-31771D01*
X49287Y-31417D01*
X49228Y-31437D01*
X49225Y-31429D01*
X49055Y-31259D01*
X48833Y-31167D01*
X48592Y-31167D01*
X48370Y-31259D01*
X48200Y-31428D01*
X48108Y-31650D01*
X48108Y-31891D01*
X48199Y-32113D01*
X48369Y-32283D01*
X48591Y-32375D01*
X48782Y-32376D01*
X48695Y-32462D01*
X48637Y-32601D01*
X48637Y-32752D01*
X48695Y-32890D01*
X48801Y-32997D01*
X48940Y-33055D01*
X49090Y-33055D01*
X49229Y-32997D01*
X49250Y-32977D01*
X49875Y-32977D01*
X52455Y-35557D01*
X52455Y-40119D01*
X52435Y-40139D01*
X52378Y-40278D01*
X52377Y-40429D01*
X52435Y-40568D01*
X52541Y-40674D01*
X52584Y-40692D01*
X51157Y-42119D01*
X51170Y-42088D01*
X51170Y-42085D01*
X51306Y-41395D01*
X51306Y-41395D01*
X51306Y-41395D01*
X51306Y-41394D01*
X51306Y-41338D01*
X51306Y-41282D01*
X51306Y-41281D01*
X51306Y-41281D01*
X51306Y-41281D01*
X51170Y-40591D01*
X51170Y-40588D01*
X51126Y-40484D01*
X50733Y-39897D01*
X50653Y-39817D01*
X50650Y-39816D01*
X50068Y-39426D01*
X50066Y-39424D01*
X49961Y-39380D01*
X49856Y-39360D01*
X49856Y-38278D01*
X49856Y-36900D01*
X49856Y-35522D01*
X49856Y-34144D01*
X49758Y-33907D01*
X49577Y-33726D01*
X49341Y-33628D01*
X49085Y-33627D01*
X48848Y-33725D01*
X48667Y-33906D01*
X48569Y-34143D01*
X48568Y-34399D01*
X48666Y-34635D01*
X48847Y-34817D01*
X49083Y-34915D01*
X49340Y-34915D01*
X49576Y-34817D01*
X49757Y-34636D01*
X49856Y-34400D01*
X49856Y-34144D01*
X49856Y-35522D01*
X49758Y-35285D01*
X49577Y-35104D01*
X49341Y-35006D01*
X49085Y-35005D01*
X48848Y-35103D01*
X48667Y-35284D01*
X48569Y-35521D01*
X48568Y-35777D01*
X48666Y-36013D01*
X48847Y-36194D01*
X49083Y-36293D01*
X49340Y-36293D01*
X49576Y-36195D01*
X49757Y-36014D01*
X49856Y-35778D01*
X49856Y-35522D01*
X49856Y-36900D01*
X49758Y-36663D01*
X49577Y-36482D01*
X49341Y-36383D01*
X49085Y-36383D01*
X48848Y-36481D01*
X48667Y-36662D01*
X48569Y-36898D01*
X48568Y-37155D01*
X48666Y-37391D01*
X48847Y-37572D01*
X49083Y-37671D01*
X49340Y-37671D01*
X49576Y-37573D01*
X49757Y-37392D01*
X49856Y-37156D01*
X49856Y-36900D01*
X49856Y-38278D01*
X49758Y-38041D01*
X49577Y-37860D01*
X49341Y-37761D01*
X49085Y-37761D01*
X48848Y-37859D01*
X48667Y-38040D01*
X48569Y-38276D01*
X48568Y-38532D01*
X48666Y-38769D01*
X48847Y-38950D01*
X49083Y-39049D01*
X49340Y-39049D01*
X49576Y-38951D01*
X49757Y-38770D01*
X49856Y-38534D01*
X49856Y-38278D01*
X49856Y-39360D01*
X49268Y-39243D01*
X49155Y-39243D01*
X49153Y-39244D01*
X48465Y-39381D01*
X48462Y-39381D01*
X48358Y-39424D01*
X48039Y-39637D01*
X48039Y-32064D01*
X48039Y-32007D01*
X48039Y-31951D01*
X48039Y-31951D01*
X48039Y-31951D01*
X48039Y-31951D01*
X48015Y-31831D01*
X48015Y-31831D01*
X48015Y-31830D01*
X47972Y-31726D01*
X47904Y-31624D01*
X47824Y-31544D01*
X47823Y-31544D01*
X47722Y-31476D01*
X47722Y-31476D01*
X47722Y-31476D01*
X47617Y-31432D01*
X47497Y-31409D01*
X47384Y-31409D01*
X47383Y-31409D01*
X47264Y-31433D01*
X47264Y-31433D01*
X47263Y-31433D01*
X47159Y-31476D01*
X47057Y-31544D01*
X46977Y-31624D01*
X46977Y-31625D01*
X46909Y-31726D01*
X46909Y-31726D01*
X46909Y-31726D01*
X46865Y-31831D01*
X46842Y-31951D01*
X46842Y-32007D01*
X46842Y-32064D01*
X46865Y-32184D01*
X46909Y-32288D01*
X46909Y-32289D01*
X46909Y-32289D01*
X46977Y-32390D01*
X46977Y-32391D01*
X47057Y-32471D01*
X47159Y-32539D01*
X47263Y-32582D01*
X47264Y-32582D01*
X47264Y-32582D01*
X47383Y-32606D01*
X47384Y-32606D01*
X47497Y-32606D01*
X47617Y-32582D01*
X47722Y-32539D01*
X47722Y-32539D01*
X47722Y-32539D01*
X47823Y-32471D01*
X47824Y-32471D01*
X47904Y-32391D01*
X47972Y-32289D01*
X48015Y-32185D01*
X48015Y-32184D01*
X48015Y-32184D01*
X48039Y-32064D01*
X48039Y-32064D01*
X48039Y-32064D01*
X48039Y-32064D01*
X48039Y-39637D01*
X47771Y-39817D01*
X47691Y-39897D01*
X47690Y-39900D01*
X47300Y-40482D01*
X47298Y-40484D01*
X47254Y-40589D01*
X47117Y-41282D01*
X47117Y-41338D01*
X47117Y-41394D01*
X47254Y-42087D01*
X47298Y-42192D01*
X47300Y-42194D01*
X47473Y-42452D01*
X47001Y-41981D01*
X47001Y-36366D01*
X47031Y-36295D01*
X47031Y-36145D01*
X46974Y-36006D01*
X46867Y-35900D01*
X46729Y-35842D01*
X46608Y-35842D01*
X46608Y-34991D01*
X46670Y-34966D01*
X46776Y-34860D01*
X46834Y-34721D01*
X46834Y-34570D01*
X46777Y-34431D01*
X46671Y-34325D01*
X46532Y-34267D01*
X46381Y-34267D01*
X46242Y-34325D01*
X46136Y-34431D01*
X46106Y-34502D01*
X46013Y-34596D01*
X45937Y-34709D01*
X45933Y-34731D01*
X45911Y-34842D01*
X45911Y-34842D01*
X45911Y-42519D01*
X45911Y-42519D01*
X45933Y-42630D01*
X45937Y-42653D01*
X46013Y-42766D01*
X47588Y-44340D01*
X47588Y-44340D01*
X47701Y-44416D01*
X47834Y-44442D01*
X47834Y-44442D01*
X47834Y-44442D01*
X48081Y-44442D01*
X48152Y-44472D01*
X48303Y-44472D01*
X48442Y-44415D01*
X48523Y-44333D01*
X48604Y-44414D01*
X48743Y-44472D01*
X48893Y-44472D01*
X49032Y-44415D01*
X49139Y-44308D01*
X49196Y-44169D01*
X49196Y-44019D01*
X49139Y-43880D01*
X49033Y-43774D01*
X48961Y-43744D01*
X48671Y-43454D01*
X48558Y-43378D01*
X48536Y-43374D01*
X48425Y-43352D01*
X48425Y-43352D01*
X48372Y-43352D01*
X48100Y-43080D01*
X48358Y-43252D01*
X48462Y-43296D01*
X48465Y-43296D01*
X49153Y-43432D01*
X49155Y-43433D01*
X49268Y-43433D01*
X49961Y-43296D01*
X49993Y-43283D01*
X49756Y-43519D01*
X49728Y-43519D01*
X49589Y-43577D01*
X49482Y-43683D01*
X49425Y-43822D01*
X49425Y-43972D01*
X49474Y-44091D01*
X49474Y-46320D01*
X45066Y-50728D01*
X44995Y-50834D01*
X44970Y-50958D01*
X44954Y-50958D01*
X44862Y-50996D01*
X44799Y-51059D01*
X44736Y-50996D01*
X44644Y-50958D01*
X44545Y-50958D01*
X43954Y-50958D01*
X43862Y-50996D01*
X43799Y-51059D01*
X43736Y-50996D01*
X43644Y-50958D01*
X43545Y-50958D01*
X43473Y-50958D01*
X43473Y-47890D01*
X43472Y-47834D01*
X43473Y-47778D01*
X43473Y-34898D01*
X43472Y-34842D01*
X43473Y-34786D01*
X43472Y-34786D01*
X43472Y-34785D01*
X43433Y-34589D01*
X43390Y-34485D01*
X43389Y-34485D01*
X43279Y-34320D01*
X43279Y-34319D01*
X43199Y-34239D01*
X43033Y-34128D01*
X42929Y-34085D01*
X42928Y-34085D01*
X42734Y-34046D01*
X42733Y-34046D01*
X42620Y-34046D01*
X42424Y-34085D01*
X42320Y-34129D01*
X42319Y-34129D01*
X42154Y-34239D01*
X42154Y-34240D01*
X42074Y-34319D01*
X41963Y-34486D01*
X41920Y-34590D01*
X41920Y-34591D01*
X41881Y-34785D01*
X41881Y-34786D01*
X41881Y-34786D01*
X41881Y-34842D01*
X41881Y-34898D01*
X41881Y-34898D01*
X41881Y-34899D01*
X41920Y-35093D01*
X41920Y-35094D01*
X41963Y-35198D01*
X42074Y-35365D01*
X42154Y-35444D01*
X42154Y-35445D01*
X42319Y-35555D01*
X42320Y-35555D01*
X42424Y-35599D01*
X42620Y-35638D01*
X42733Y-35638D01*
X42734Y-35638D01*
X42928Y-35599D01*
X42929Y-35599D01*
X43033Y-35556D01*
X43199Y-35445D01*
X43279Y-35365D01*
X43279Y-35364D01*
X43389Y-35199D01*
X43390Y-35199D01*
X43433Y-35095D01*
X43472Y-34899D01*
X43472Y-34898D01*
X43473Y-34898D01*
X43473Y-47778D01*
X43472Y-47778D01*
X43472Y-47777D01*
X43433Y-47582D01*
X43390Y-47477D01*
X43389Y-47477D01*
X43279Y-47312D01*
X43279Y-47311D01*
X43199Y-47231D01*
X43033Y-47121D01*
X42929Y-47077D01*
X42928Y-47077D01*
X42734Y-47039D01*
X42733Y-47038D01*
X42620Y-47038D01*
X42424Y-47078D01*
X42320Y-47121D01*
X42319Y-47121D01*
X42154Y-47231D01*
X42154Y-47232D01*
X42074Y-47312D01*
X41963Y-47478D01*
X41920Y-47582D01*
X41920Y-47583D01*
X41881Y-47777D01*
X41881Y-47778D01*
X41881Y-47778D01*
X41881Y-47834D01*
X41881Y-47890D01*
X41881Y-47891D01*
X41881Y-47891D01*
X41920Y-48085D01*
X41920Y-48086D01*
X41963Y-48191D01*
X42074Y-48357D01*
X42154Y-48437D01*
X42154Y-48437D01*
X42319Y-48547D01*
X42320Y-48547D01*
X42424Y-48591D01*
X42620Y-48630D01*
X42733Y-48630D01*
X42734Y-48630D01*
X42928Y-48591D01*
X42929Y-48591D01*
X43033Y-48548D01*
X43199Y-48437D01*
X43279Y-48357D01*
X43279Y-48356D01*
X43389Y-48192D01*
X43390Y-48191D01*
X43433Y-48087D01*
X43472Y-47891D01*
X43472Y-47891D01*
X43473Y-47890D01*
X43473Y-50958D01*
X43411Y-50958D01*
X43349Y-51020D01*
X43349Y-51453D01*
X43357Y-51453D01*
X43357Y-51553D01*
X43349Y-51553D01*
X43349Y-51986D01*
X43411Y-52049D01*
X43545Y-52049D01*
X43644Y-52049D01*
X43736Y-52011D01*
X43799Y-51948D01*
X43861Y-52011D01*
X43931Y-52039D01*
X43931Y-52173D01*
X43959Y-52314D01*
X44038Y-52433D01*
X44227Y-52622D01*
X44227Y-52622D01*
X44347Y-52702D01*
X44488Y-52730D01*
X50984Y-52730D01*
X51125Y-52702D01*
X51244Y-52622D01*
X51371Y-52495D01*
X51394Y-52485D01*
X51501Y-52379D01*
X51558Y-52240D01*
X51559Y-52090D01*
X51501Y-51951D01*
X51395Y-51845D01*
X51256Y-51787D01*
X51106Y-51787D01*
X50967Y-51844D01*
X50860Y-51950D01*
X50850Y-51974D01*
X50831Y-51994D01*
X48753Y-51994D01*
X48806Y-51941D01*
X48844Y-51849D01*
X48844Y-51803D01*
X49283Y-51803D01*
X49283Y-51803D01*
X49398Y-51781D01*
X49398Y-51781D01*
X49495Y-51716D01*
X49849Y-51362D01*
X49877Y-51362D01*
X50016Y-51304D01*
X50123Y-51198D01*
X50181Y-51059D01*
X50181Y-50909D01*
X50123Y-50770D01*
X50017Y-50664D01*
X49878Y-50606D01*
X49728Y-50606D01*
X49589Y-50663D01*
X49482Y-50769D01*
X49425Y-50908D01*
X49425Y-50937D01*
X49159Y-51203D01*
X48844Y-51203D01*
X48844Y-51158D01*
X48806Y-51067D01*
X48736Y-50996D01*
X48644Y-50958D01*
X48545Y-50958D01*
X48087Y-50958D01*
X49730Y-49315D01*
X49962Y-49315D01*
X49982Y-49335D01*
X50121Y-49393D01*
X50271Y-49393D01*
X50410Y-49336D01*
X50517Y-49230D01*
X50574Y-49091D01*
X50574Y-48940D01*
X50517Y-48801D01*
X50411Y-48695D01*
X50272Y-48637D01*
X50122Y-48637D01*
X49983Y-48695D01*
X49962Y-48715D01*
X49606Y-48715D01*
X49491Y-48738D01*
X49394Y-48803D01*
X47239Y-50958D01*
X46954Y-50958D01*
X46873Y-50991D01*
X51621Y-46244D01*
X51649Y-46244D01*
X51788Y-46186D01*
X51895Y-46080D01*
X51952Y-45941D01*
X51952Y-45791D01*
X51895Y-45652D01*
X51789Y-45545D01*
X51650Y-45488D01*
X51499Y-45488D01*
X51360Y-45545D01*
X51254Y-45651D01*
X51196Y-45790D01*
X51196Y-45819D01*
X46087Y-50929D01*
X46067Y-50958D01*
X45954Y-50958D01*
X45862Y-50996D01*
X45799Y-51059D01*
X45736Y-50996D01*
X45730Y-50994D01*
X50035Y-46689D01*
X50106Y-46582D01*
X50106Y-46582D01*
X50131Y-46456D01*
X50131Y-44353D01*
X50180Y-44373D01*
X50330Y-44374D01*
X50469Y-44316D01*
X50576Y-44210D01*
X50633Y-44071D01*
X50633Y-44042D01*
X55439Y-39237D01*
X58858Y-39237D01*
X58897Y-39237D01*
X58956Y-39237D01*
X59371Y-39237D01*
X59391Y-39257D01*
X59530Y-39314D01*
X59681Y-39315D01*
X59820Y-39257D01*
X59926Y-39151D01*
X59984Y-39012D01*
X59984Y-38862D01*
X59950Y-38780D01*
X60715Y-38015D01*
X60744Y-38015D01*
X60883Y-37958D01*
X60989Y-37852D01*
X61047Y-37713D01*
X61047Y-37562D01*
X61047Y-49835D01*
X60975Y-49805D01*
X60875Y-49805D01*
X59694Y-49805D01*
X59602Y-49843D01*
X59532Y-49913D01*
X59494Y-50005D01*
X59494Y-50104D01*
X59494Y-51285D01*
X59532Y-51377D01*
X59602Y-51448D01*
X59694Y-51486D01*
X59793Y-51486D01*
X60974Y-51486D01*
X61066Y-51448D01*
X61137Y-51378D01*
X61175Y-51286D01*
X61175Y-51186D01*
X61175Y-53854D01*
X59425Y-53854D01*
X59425Y-52387D01*
X59425Y-51206D01*
X59387Y-51114D01*
X59334Y-51061D01*
X59334Y-48153D01*
X59277Y-48014D01*
X59171Y-47908D01*
X59032Y-47850D01*
X58881Y-47850D01*
X58742Y-47907D01*
X58722Y-47928D01*
X58469Y-47928D01*
X58469Y-47478D01*
X58489Y-47458D01*
X58547Y-47319D01*
X58547Y-47169D01*
X58489Y-47030D01*
X58383Y-46923D01*
X58244Y-46866D01*
X58094Y-46866D01*
X57955Y-46923D01*
X57849Y-47029D01*
X57791Y-47168D01*
X57791Y-47318D01*
X57848Y-47457D01*
X57869Y-47478D01*
X57869Y-47928D01*
X52990Y-47928D01*
X52970Y-47908D01*
X52831Y-47850D01*
X52681Y-47850D01*
X52563Y-47898D01*
X52563Y-43726D01*
X53688Y-42602D01*
X53716Y-42602D01*
X53855Y-42545D01*
X53961Y-42438D01*
X54019Y-42299D01*
X54019Y-42149D01*
X53962Y-42010D01*
X53856Y-41904D01*
X53717Y-41846D01*
X53566Y-41846D01*
X53427Y-41903D01*
X53321Y-42010D01*
X53263Y-42148D01*
X53263Y-42178D01*
X52051Y-43390D01*
X51986Y-43487D01*
X51963Y-43602D01*
X51963Y-48781D01*
X51943Y-48801D01*
X51885Y-48940D01*
X51885Y-49090D01*
X51943Y-49229D01*
X52049Y-49335D01*
X52188Y-49393D01*
X52338Y-49393D01*
X52477Y-49336D01*
X52584Y-49230D01*
X52641Y-49091D01*
X52641Y-48940D01*
X52584Y-48801D01*
X52563Y-48781D01*
X52563Y-48557D01*
X52574Y-48562D01*
X52574Y-48696D01*
X52632Y-48835D01*
X52738Y-48942D01*
X52877Y-48999D01*
X53027Y-49000D01*
X53166Y-48942D01*
X53187Y-48922D01*
X57836Y-48922D01*
X57856Y-48942D01*
X57995Y-48999D01*
X58145Y-49000D01*
X58284Y-48942D01*
X58391Y-48836D01*
X58448Y-48697D01*
X58448Y-48547D01*
X58441Y-48528D01*
X58722Y-48528D01*
X58742Y-48548D01*
X58881Y-48606D01*
X59031Y-48606D01*
X59170Y-48548D01*
X59276Y-48442D01*
X59334Y-48303D01*
X59334Y-48153D01*
X59334Y-51061D01*
X59316Y-51044D01*
X59225Y-51005D01*
X59125Y-51005D01*
X57944Y-51005D01*
X57852Y-51043D01*
X57782Y-51114D01*
X57744Y-51205D01*
X57744Y-51305D01*
X57744Y-52486D01*
X57782Y-52578D01*
X57852Y-52648D01*
X57944Y-52686D01*
X58043Y-52687D01*
X59224Y-52687D01*
X59316Y-52649D01*
X59387Y-52578D01*
X59425Y-52486D01*
X59425Y-52387D01*
X59425Y-53854D01*
X49262Y-53854D01*
X44411Y-52893D01*
X43091Y-52049D01*
X43186Y-52049D01*
X43249Y-51986D01*
X43249Y-51553D01*
X43249Y-51453D01*
X43249Y-51020D01*
X43186Y-50958D01*
X43053Y-50958D01*
X42953Y-50958D01*
X42861Y-50996D01*
X42791Y-51067D01*
X42753Y-51158D01*
X42753Y-51391D01*
X42816Y-51453D01*
X43249Y-51453D01*
X43249Y-51553D01*
X42816Y-51553D01*
X42753Y-51616D01*
X42753Y-51833D01*
X40830Y-50603D01*
X40830Y-32077D01*
X44904Y-29590D01*
X49215Y-28822D01*
X70192Y-28822D01*
X70192Y-53854D01*
X70192Y-53854D01*
G37*
G54D18*
X70192Y-53854D02*
X69142Y-53854D01*
X69142Y-49859D01*
X69142Y-49803D01*
X69142Y-49746D01*
X69142Y-32930D01*
X69142Y-32874D01*
X69142Y-32817D01*
X69142Y-32817D01*
X69142Y-32817D01*
X69103Y-32621D01*
X69059Y-32517D01*
X69059Y-32516D01*
X68949Y-32351D01*
X68948Y-32350D01*
X68869Y-32271D01*
X68702Y-32160D01*
X68598Y-32117D01*
X68597Y-32117D01*
X68403Y-32078D01*
X68402Y-32078D01*
X68289Y-32078D01*
X68093Y-32117D01*
X67989Y-32160D01*
X67988Y-32161D01*
X67824Y-32271D01*
X67823Y-32271D01*
X67743Y-32351D01*
X67632Y-32517D01*
X67589Y-32621D01*
X67589Y-32622D01*
X67550Y-32817D01*
X67550Y-32817D01*
X67550Y-32817D01*
X67550Y-32874D01*
X67550Y-32930D01*
X67550Y-32930D01*
X67550Y-32930D01*
X67589Y-33125D01*
X67589Y-33126D01*
X67632Y-33230D01*
X67743Y-33396D01*
X67823Y-33476D01*
X67824Y-33476D01*
X67988Y-33586D01*
X67989Y-33587D01*
X68093Y-33630D01*
X68289Y-33669D01*
X68402Y-33669D01*
X68403Y-33669D01*
X68597Y-33630D01*
X68598Y-33630D01*
X68702Y-33587D01*
X68869Y-33476D01*
X68948Y-33397D01*
X68949Y-33396D01*
X69059Y-33231D01*
X69059Y-33230D01*
X69103Y-33126D01*
X69142Y-32930D01*
X69142Y-32930D01*
X69142Y-32930D01*
X69142Y-49746D01*
X69142Y-49746D01*
X69142Y-49746D01*
X69103Y-49550D01*
X69059Y-49446D01*
X69059Y-49445D01*
X68949Y-49280D01*
X68948Y-49280D01*
X68869Y-49200D01*
X68702Y-49089D01*
X68598Y-49046D01*
X68597Y-49046D01*
X68403Y-49007D01*
X68402Y-49007D01*
X68289Y-49007D01*
X68093Y-49046D01*
X67989Y-49089D01*
X67988Y-49090D01*
X67824Y-49200D01*
X67823Y-49200D01*
X67743Y-49280D01*
X67632Y-49446D01*
X67589Y-49551D01*
X67589Y-49551D01*
X67550Y-49746D01*
X67550Y-49746D01*
X67550Y-49746D01*
X67550Y-49803D01*
X67550Y-49859D01*
X67550Y-49859D01*
X67550Y-49859D01*
X67589Y-50054D01*
X67589Y-50055D01*
X67632Y-50159D01*
X67743Y-50325D01*
X67823Y-50405D01*
X67824Y-50405D01*
X67988Y-50515D01*
X67989Y-50516D01*
X68093Y-50559D01*
X68289Y-50598D01*
X68402Y-50598D01*
X68403Y-50598D01*
X68597Y-50559D01*
X68598Y-50559D01*
X68702Y-50516D01*
X68869Y-50405D01*
X68948Y-50326D01*
X68949Y-50325D01*
X69059Y-50160D01*
X69059Y-50159D01*
X69103Y-50055D01*
X69142Y-49859D01*
X69142Y-49859D01*
X69142Y-49859D01*
X69142Y-53854D01*
X67059Y-53854D01*
X67059Y-52072D01*
X67059Y-50891D01*
X67059Y-31371D01*
X67059Y-30289D01*
X67059Y-30190D01*
X67020Y-30098D01*
X66950Y-30028D01*
X66858Y-29990D01*
X66331Y-29990D01*
X66268Y-30052D01*
X66268Y-30780D01*
X66996Y-30780D01*
X67059Y-30718D01*
X67059Y-30289D01*
X67059Y-31371D01*
X67059Y-30943D01*
X66996Y-30880D01*
X66268Y-30880D01*
X66268Y-31608D01*
X66331Y-31671D01*
X66858Y-31671D01*
X66950Y-31633D01*
X67020Y-31563D01*
X67059Y-31471D01*
X67059Y-31371D01*
X67059Y-50891D01*
X67021Y-50799D01*
X66950Y-50729D01*
X66859Y-50690D01*
X66759Y-50690D01*
X66168Y-50690D01*
X66168Y-31608D01*
X66168Y-30880D01*
X66168Y-30780D01*
X66168Y-30052D01*
X66106Y-29990D01*
X65578Y-29990D01*
X65486Y-30028D01*
X65416Y-30098D01*
X65377Y-30190D01*
X65377Y-30289D01*
X65377Y-30718D01*
X65440Y-30780D01*
X66168Y-30780D01*
X66168Y-30880D01*
X65440Y-30880D01*
X65377Y-30943D01*
X65377Y-31371D01*
X65377Y-31471D01*
X65416Y-31563D01*
X65486Y-31633D01*
X65578Y-31671D01*
X66106Y-31671D01*
X66168Y-31608D01*
X66168Y-50690D01*
X65578Y-50690D01*
X65486Y-50728D01*
X65416Y-50799D01*
X65377Y-50890D01*
X65377Y-50990D01*
X65377Y-52171D01*
X65415Y-52263D01*
X65486Y-52333D01*
X65578Y-52372D01*
X65677Y-52372D01*
X66858Y-52372D01*
X66950Y-52334D01*
X67020Y-52263D01*
X67059Y-52171D01*
X67059Y-52072D01*
X67059Y-53854D01*
X65309Y-53854D01*
X65309Y-50871D01*
X65309Y-49690D01*
X65309Y-32572D01*
X65309Y-31490D01*
X65309Y-31390D01*
X65270Y-31299D01*
X65200Y-31228D01*
X65108Y-31190D01*
X64581Y-31190D01*
X64518Y-31253D01*
X64518Y-31981D01*
X65246Y-31981D01*
X65309Y-31918D01*
X65309Y-31490D01*
X65309Y-32572D01*
X65309Y-32143D01*
X65246Y-32081D01*
X64518Y-32081D01*
X64518Y-32809D01*
X64581Y-32872D01*
X65108Y-32872D01*
X65200Y-32834D01*
X65270Y-32763D01*
X65309Y-32671D01*
X65309Y-32572D01*
X65309Y-49690D01*
X65271Y-49598D01*
X65200Y-49528D01*
X65109Y-49490D01*
X65009Y-49490D01*
X64418Y-49490D01*
X64418Y-32809D01*
X64418Y-32081D01*
X64418Y-31981D01*
X64418Y-31253D01*
X64356Y-31190D01*
X63828Y-31190D01*
X63736Y-31228D01*
X63666Y-31299D01*
X63627Y-31390D01*
X63627Y-31490D01*
X63627Y-31918D01*
X63690Y-31981D01*
X64418Y-31981D01*
X64418Y-32081D01*
X63690Y-32081D01*
X63627Y-32143D01*
X63627Y-32572D01*
X63627Y-32671D01*
X63666Y-32763D01*
X63736Y-32834D01*
X63828Y-32872D01*
X64356Y-32872D01*
X64418Y-32809D01*
X64418Y-49490D01*
X63828Y-49490D01*
X63736Y-49528D01*
X63666Y-49598D01*
X63627Y-49690D01*
X63627Y-49789D01*
X63627Y-50970D01*
X63665Y-51062D01*
X63736Y-51133D01*
X63828Y-51171D01*
X63927Y-51171D01*
X65108Y-51171D01*
X65200Y-51133D01*
X65270Y-51063D01*
X65309Y-50971D01*
X65309Y-50871D01*
X65309Y-53854D01*
X63228Y-53854D01*
X63228Y-51430D01*
X63228Y-30729D01*
X63150Y-30542D01*
X63007Y-30398D01*
X62820Y-30320D01*
X62617Y-30320D01*
X62430Y-30398D01*
X62286Y-30541D01*
X62238Y-30657D01*
X62186Y-30635D01*
X61983Y-30635D01*
X61796Y-30713D01*
X61652Y-30856D01*
X61574Y-31043D01*
X61574Y-31246D01*
X61652Y-31434D01*
X61795Y-31577D01*
X61982Y-31655D01*
X62185Y-31655D01*
X62373Y-31578D01*
X62516Y-31434D01*
X62564Y-31318D01*
X62616Y-31340D01*
X62819Y-31340D01*
X63006Y-31263D01*
X63150Y-31119D01*
X63228Y-30932D01*
X63228Y-30729D01*
X63228Y-51430D01*
X63150Y-51243D01*
X63007Y-51099D01*
X62820Y-51021D01*
X62617Y-51021D01*
X62430Y-51099D01*
X62286Y-51242D01*
X62238Y-51358D01*
X62186Y-51336D01*
X61983Y-51336D01*
X61796Y-51413D01*
X61652Y-51557D01*
X61574Y-51744D01*
X61574Y-51947D01*
X61652Y-52134D01*
X61795Y-52278D01*
X61982Y-52356D01*
X62185Y-52356D01*
X62373Y-52278D01*
X62516Y-52135D01*
X62564Y-52019D01*
X62616Y-52041D01*
X62819Y-52041D01*
X63006Y-51963D01*
X63150Y-51820D01*
X63228Y-51633D01*
X63228Y-51430D01*
X63228Y-53854D01*
X61175Y-53854D01*
X61175Y-51186D01*
X61175Y-50005D01*
X61175Y-32887D01*
X61175Y-31706D01*
X61137Y-31614D01*
X61066Y-31544D01*
X60975Y-31505D01*
X60875Y-31505D01*
X59694Y-31505D01*
X59602Y-31543D01*
X59532Y-31614D01*
X59494Y-31705D01*
X59494Y-31805D01*
X59494Y-32986D01*
X59532Y-33078D01*
X59602Y-33148D01*
X59694Y-33186D01*
X59793Y-33187D01*
X60974Y-33187D01*
X61066Y-33149D01*
X61137Y-33078D01*
X61175Y-32986D01*
X61175Y-32887D01*
X61175Y-50005D01*
X61137Y-49913D01*
X61066Y-49843D01*
X61047Y-49835D01*
X61047Y-37562D01*
X60989Y-37423D01*
X60883Y-37317D01*
X60744Y-37259D01*
X60594Y-37259D01*
X60455Y-37317D01*
X60349Y-37423D01*
X60291Y-37562D01*
X60291Y-37591D01*
X59600Y-38282D01*
X59425Y-38282D01*
X59425Y-31686D01*
X59425Y-30505D01*
X59387Y-30413D01*
X59316Y-30343D01*
X59225Y-30305D01*
X59125Y-30305D01*
X57944Y-30305D01*
X57852Y-30343D01*
X57782Y-30413D01*
X57744Y-30505D01*
X57744Y-30604D01*
X57744Y-31785D01*
X57782Y-31877D01*
X57852Y-31948D01*
X57944Y-31986D01*
X58043Y-31986D01*
X59224Y-31986D01*
X59316Y-31948D01*
X59387Y-31878D01*
X59425Y-31786D01*
X59425Y-31686D01*
X59425Y-38282D01*
X58661Y-38282D01*
X58582Y-38282D01*
X56313Y-38282D01*
X56313Y-32864D01*
X56215Y-32627D01*
X56034Y-32446D01*
X55797Y-32348D01*
X55541Y-32348D01*
X55305Y-32446D01*
X55123Y-32627D01*
X55025Y-32863D01*
X55025Y-33119D01*
X55123Y-33356D01*
X55304Y-33537D01*
X55540Y-33635D01*
X55796Y-33635D01*
X56033Y-33538D01*
X56214Y-33357D01*
X56312Y-33120D01*
X56313Y-32864D01*
X56313Y-38282D01*
X55118Y-38282D01*
X55003Y-38305D01*
X54905Y-38370D01*
X54344Y-38931D01*
X54344Y-32864D01*
X54246Y-32627D01*
X54065Y-32446D01*
X53829Y-32348D01*
X53573Y-32348D01*
X53336Y-32446D01*
X53155Y-32627D01*
X53057Y-32863D01*
X53056Y-33119D01*
X53154Y-33356D01*
X53335Y-33537D01*
X53572Y-33635D01*
X53828Y-33635D01*
X54064Y-33538D01*
X54246Y-33357D01*
X54344Y-33120D01*
X54344Y-32864D01*
X54344Y-38931D01*
X53093Y-40182D01*
X53076Y-40140D01*
X53055Y-40119D01*
X53055Y-35433D01*
X53055Y-35433D01*
X53033Y-35318D01*
X52968Y-35220D01*
X52968Y-35220D01*
X51582Y-33835D01*
X51582Y-32064D01*
X51582Y-32007D01*
X51582Y-31951D01*
X51582Y-31951D01*
X51582Y-31951D01*
X51582Y-31951D01*
X51559Y-31831D01*
X51559Y-31831D01*
X51559Y-31830D01*
X51515Y-31726D01*
X51447Y-31624D01*
X51367Y-31544D01*
X51367Y-31544D01*
X51265Y-31476D01*
X51265Y-31476D01*
X51265Y-31476D01*
X51161Y-31432D01*
X51040Y-31409D01*
X50927Y-31409D01*
X50927Y-31409D01*
X50807Y-31433D01*
X50807Y-31433D01*
X50806Y-31433D01*
X50702Y-31476D01*
X50600Y-31544D01*
X50520Y-31624D01*
X50520Y-31625D01*
X50452Y-31726D01*
X50452Y-31726D01*
X50452Y-31726D01*
X50409Y-31831D01*
X50385Y-31951D01*
X50385Y-32007D01*
X50385Y-32064D01*
X50409Y-32184D01*
X50452Y-32288D01*
X50452Y-32289D01*
X50452Y-32289D01*
X50520Y-32390D01*
X50520Y-32391D01*
X50600Y-32471D01*
X50702Y-32539D01*
X50806Y-32582D01*
X50807Y-32582D01*
X50807Y-32582D01*
X50927Y-32606D01*
X50927Y-32606D01*
X51040Y-32606D01*
X51161Y-32582D01*
X51265Y-32539D01*
X51265Y-32539D01*
X51265Y-32539D01*
X51367Y-32471D01*
X51367Y-32471D01*
X51447Y-32391D01*
X51515Y-32289D01*
X51559Y-32185D01*
X51559Y-32184D01*
X51559Y-32184D01*
X51582Y-32064D01*
X51582Y-32064D01*
X51582Y-32064D01*
X51582Y-32064D01*
X51582Y-33835D01*
X50321Y-32574D01*
X50321Y-31866D01*
X50311Y-31626D01*
X50238Y-31451D01*
X50137Y-31417D01*
X50067Y-31487D01*
X50067Y-31346D01*
X50033Y-31245D01*
X49807Y-31162D01*
X49567Y-31172D01*
X49392Y-31245D01*
X49358Y-31346D01*
X49712Y-31700D01*
X50067Y-31346D01*
X50067Y-31487D01*
X49783Y-31771D01*
X50137Y-32126D01*
X50238Y-32092D01*
X50321Y-31866D01*
X50321Y-32574D01*
X50212Y-32465D01*
X50114Y-32400D01*
X50000Y-32377D01*
X49697Y-32377D01*
X49858Y-32370D01*
X50033Y-32297D01*
X50067Y-32196D01*
X49712Y-31842D01*
X49358Y-32196D01*
X49392Y-32297D01*
X49608Y-32377D01*
X49250Y-32377D01*
X49230Y-32356D01*
X49091Y-32299D01*
X49018Y-32299D01*
X49054Y-32284D01*
X49224Y-32114D01*
X49228Y-32106D01*
X49287Y-32126D01*
X49641Y-31771D01*
X49287Y-31417D01*
X49228Y-31437D01*
X49225Y-31429D01*
X49055Y-31259D01*
X48833Y-31167D01*
X48592Y-31167D01*
X48370Y-31259D01*
X48200Y-31428D01*
X48108Y-31650D01*
X48108Y-31891D01*
X48199Y-32113D01*
X48369Y-32283D01*
X48591Y-32375D01*
X48782Y-32376D01*
X48695Y-32462D01*
X48637Y-32601D01*
X48637Y-32752D01*
X48695Y-32890D01*
X48801Y-32997D01*
X48940Y-33055D01*
X49090Y-33055D01*
X49229Y-32997D01*
X49250Y-32977D01*
X49875Y-32977D01*
X52455Y-35557D01*
X52455Y-40119D01*
X52435Y-40139D01*
X52378Y-40278D01*
X52377Y-40429D01*
X52435Y-40568D01*
X52541Y-40674D01*
X52584Y-40692D01*
X51157Y-42119D01*
X51170Y-42088D01*
X51170Y-42085D01*
X51306Y-41395D01*
X51306Y-41395D01*
X51306Y-41395D01*
X51306Y-41394D01*
X51306Y-41338D01*
X51306Y-41282D01*
X51306Y-41281D01*
X51306Y-41281D01*
X51306Y-41281D01*
X51170Y-40591D01*
X51170Y-40588D01*
X51126Y-40484D01*
X50733Y-39897D01*
X50653Y-39817D01*
X50650Y-39816D01*
X50068Y-39426D01*
X50066Y-39424D01*
X49961Y-39380D01*
X49856Y-39360D01*
X49856Y-38278D01*
X49856Y-36900D01*
X49856Y-35522D01*
X49856Y-34144D01*
X49758Y-33907D01*
X49577Y-33726D01*
X49341Y-33628D01*
X49085Y-33627D01*
X48848Y-33725D01*
X48667Y-33906D01*
X48569Y-34143D01*
X48568Y-34399D01*
X48666Y-34635D01*
X48847Y-34817D01*
X49083Y-34915D01*
X49340Y-34915D01*
X49576Y-34817D01*
X49757Y-34636D01*
X49856Y-34400D01*
X49856Y-34144D01*
X49856Y-35522D01*
X49758Y-35285D01*
X49577Y-35104D01*
X49341Y-35006D01*
X49085Y-35005D01*
X48848Y-35103D01*
X48667Y-35284D01*
X48569Y-35521D01*
X48568Y-35777D01*
X48666Y-36013D01*
X48847Y-36194D01*
X49083Y-36293D01*
X49340Y-36293D01*
X49576Y-36195D01*
X49757Y-36014D01*
X49856Y-35778D01*
X49856Y-35522D01*
X49856Y-36900D01*
X49758Y-36663D01*
X49577Y-36482D01*
X49341Y-36383D01*
X49085Y-36383D01*
X48848Y-36481D01*
X48667Y-36662D01*
X48569Y-36898D01*
X48568Y-37155D01*
X48666Y-37391D01*
X48847Y-37572D01*
X49083Y-37671D01*
X49340Y-37671D01*
X49576Y-37573D01*
X49757Y-37392D01*
X49856Y-37156D01*
X49856Y-36900D01*
X49856Y-38278D01*
X49758Y-38041D01*
X49577Y-37860D01*
X49341Y-37761D01*
X49085Y-37761D01*
X48848Y-37859D01*
X48667Y-38040D01*
X48569Y-38276D01*
X48568Y-38532D01*
X48666Y-38769D01*
X48847Y-38950D01*
X49083Y-39049D01*
X49340Y-39049D01*
X49576Y-38951D01*
X49757Y-38770D01*
X49856Y-38534D01*
X49856Y-38278D01*
X49856Y-39360D01*
X49268Y-39243D01*
X49155Y-39243D01*
X49153Y-39244D01*
X48465Y-39381D01*
X48462Y-39381D01*
X48358Y-39424D01*
X48039Y-39637D01*
X48039Y-32064D01*
X48039Y-32007D01*
X48039Y-31951D01*
X48039Y-31951D01*
X48039Y-31951D01*
X48039Y-31951D01*
X48015Y-31831D01*
X48015Y-31831D01*
X48015Y-31830D01*
X47972Y-31726D01*
X47904Y-31624D01*
X47824Y-31544D01*
X47823Y-31544D01*
X47722Y-31476D01*
X47722Y-31476D01*
X47722Y-31476D01*
X47617Y-31432D01*
X47497Y-31409D01*
X47384Y-31409D01*
X47383Y-31409D01*
X47264Y-31433D01*
X47264Y-31433D01*
X47263Y-31433D01*
X47159Y-31476D01*
X47057Y-31544D01*
X46977Y-31624D01*
X46977Y-31625D01*
X46909Y-31726D01*
X46909Y-31726D01*
X46909Y-31726D01*
X46865Y-31831D01*
X46842Y-31951D01*
X46842Y-32007D01*
X46842Y-32064D01*
X46865Y-32184D01*
X46909Y-32288D01*
X46909Y-32289D01*
X46909Y-32289D01*
X46977Y-32390D01*
X46977Y-32391D01*
X47057Y-32471D01*
X47159Y-32539D01*
X47263Y-32582D01*
X47264Y-32582D01*
X47264Y-32582D01*
X47383Y-32606D01*
X47384Y-32606D01*
X47497Y-32606D01*
X47617Y-32582D01*
X47722Y-32539D01*
X47722Y-32539D01*
X47722Y-32539D01*
X47823Y-32471D01*
X47824Y-32471D01*
X47904Y-32391D01*
X47972Y-32289D01*
X48015Y-32185D01*
X48015Y-32184D01*
X48015Y-32184D01*
X48039Y-32064D01*
X48039Y-32064D01*
X48039Y-32064D01*
X48039Y-32064D01*
X48039Y-39637D01*
X47771Y-39817D01*
X47691Y-39897D01*
X47690Y-39900D01*
X47300Y-40482D01*
X47298Y-40484D01*
X47254Y-40589D01*
X47117Y-41282D01*
X47117Y-41338D01*
X47117Y-41394D01*
X47254Y-42087D01*
X47298Y-42192D01*
X47300Y-42194D01*
X47473Y-42452D01*
X47001Y-41981D01*
X47001Y-36366D01*
X47031Y-36295D01*
X47031Y-36145D01*
X46974Y-36006D01*
X46867Y-35900D01*
X46729Y-35842D01*
X46608Y-35842D01*
X46608Y-34991D01*
X46670Y-34966D01*
X46776Y-34860D01*
X46834Y-34721D01*
X46834Y-34570D01*
X46777Y-34431D01*
X46671Y-34325D01*
X46532Y-34267D01*
X46381Y-34267D01*
X46242Y-34325D01*
X46136Y-34431D01*
X46106Y-34502D01*
X46013Y-34596D01*
X45937Y-34709D01*
X45933Y-34731D01*
X45911Y-34842D01*
X45911Y-34842D01*
X45911Y-42519D01*
X45911Y-42519D01*
X45933Y-42630D01*
X45937Y-42653D01*
X46013Y-42766D01*
X47588Y-44340D01*
X47588Y-44340D01*
X47701Y-44416D01*
X47834Y-44442D01*
X47834Y-44442D01*
X47834Y-44442D01*
X48081Y-44442D01*
X48152Y-44472D01*
X48303Y-44472D01*
X48442Y-44415D01*
X48523Y-44333D01*
X48604Y-44414D01*
X48743Y-44472D01*
X48893Y-44472D01*
X49032Y-44415D01*
X49139Y-44308D01*
X49196Y-44169D01*
X49196Y-44019D01*
X49139Y-43880D01*
X49033Y-43774D01*
X48961Y-43744D01*
X48671Y-43454D01*
X48558Y-43378D01*
X48536Y-43374D01*
X48425Y-43352D01*
X48425Y-43352D01*
X48372Y-43352D01*
X48100Y-43080D01*
X48358Y-43252D01*
X48462Y-43296D01*
X48465Y-43296D01*
X49153Y-43432D01*
X49155Y-43433D01*
X49268Y-43433D01*
X49961Y-43296D01*
X49993Y-43283D01*
X49756Y-43519D01*
X49728Y-43519D01*
X49589Y-43577D01*
X49482Y-43683D01*
X49425Y-43822D01*
X49425Y-43972D01*
X49474Y-44091D01*
X49474Y-46320D01*
X45066Y-50728D01*
X44995Y-50834D01*
X44970Y-50958D01*
X44954Y-50958D01*
X44862Y-50996D01*
X44799Y-51059D01*
X44736Y-50996D01*
X44644Y-50958D01*
X44545Y-50958D01*
X43954Y-50958D01*
X43862Y-50996D01*
X43799Y-51059D01*
X43736Y-50996D01*
X43644Y-50958D01*
X43545Y-50958D01*
X43473Y-50958D01*
X43473Y-47890D01*
X43472Y-47834D01*
X43473Y-47778D01*
X43473Y-34898D01*
X43472Y-34842D01*
X43473Y-34786D01*
X43472Y-34786D01*
X43472Y-34785D01*
X43433Y-34589D01*
X43390Y-34485D01*
X43389Y-34485D01*
X43279Y-34320D01*
X43279Y-34319D01*
X43199Y-34239D01*
X43033Y-34128D01*
X42929Y-34085D01*
X42928Y-34085D01*
X42734Y-34046D01*
X42733Y-34046D01*
X42620Y-34046D01*
X42424Y-34085D01*
X42320Y-34129D01*
X42319Y-34129D01*
X42154Y-34239D01*
X42154Y-34240D01*
X42074Y-34319D01*
X41963Y-34486D01*
X41920Y-34590D01*
X41920Y-34591D01*
X41881Y-34785D01*
X41881Y-34786D01*
X41881Y-34786D01*
X41881Y-34842D01*
X41881Y-34898D01*
X41881Y-34898D01*
X41881Y-34899D01*
X41920Y-35093D01*
X41920Y-35094D01*
X41963Y-35198D01*
X42074Y-35365D01*
X42154Y-35444D01*
X42154Y-35445D01*
X42319Y-35555D01*
X42320Y-35555D01*
X42424Y-35599D01*
X42620Y-35638D01*
X42733Y-35638D01*
X42734Y-35638D01*
X42928Y-35599D01*
X42929Y-35599D01*
X43033Y-35556D01*
X43199Y-35445D01*
X43279Y-35365D01*
X43279Y-35364D01*
X43389Y-35199D01*
X43390Y-35199D01*
X43433Y-35095D01*
X43472Y-34899D01*
X43472Y-34898D01*
X43473Y-34898D01*
X43473Y-47778D01*
X43472Y-47778D01*
X43472Y-47777D01*
X43433Y-47582D01*
X43390Y-47477D01*
X43389Y-47477D01*
X43279Y-47312D01*
X43279Y-47311D01*
X43199Y-47231D01*
X43033Y-47121D01*
X42929Y-47077D01*
X42928Y-47077D01*
X42734Y-47039D01*
X42733Y-47038D01*
X42620Y-47038D01*
X42424Y-47078D01*
X42320Y-47121D01*
X42319Y-47121D01*
X42154Y-47231D01*
X42154Y-47232D01*
X42074Y-47312D01*
X41963Y-47478D01*
X41920Y-47582D01*
X41920Y-47583D01*
X41881Y-47777D01*
X41881Y-47778D01*
X41881Y-47778D01*
X41881Y-47834D01*
X41881Y-47890D01*
X41881Y-47891D01*
X41881Y-47891D01*
X41920Y-48085D01*
X41920Y-48086D01*
X41963Y-48191D01*
X42074Y-48357D01*
X42154Y-48437D01*
X42154Y-48437D01*
X42319Y-48547D01*
X42320Y-48547D01*
X42424Y-48591D01*
X42620Y-48630D01*
X42733Y-48630D01*
X42734Y-48630D01*
X42928Y-48591D01*
X42929Y-48591D01*
X43033Y-48548D01*
X43199Y-48437D01*
X43279Y-48357D01*
X43279Y-48356D01*
X43389Y-48192D01*
X43390Y-48191D01*
X43433Y-48087D01*
X43472Y-47891D01*
X43472Y-47891D01*
X43473Y-47890D01*
X43473Y-50958D01*
X43411Y-50958D01*
X43349Y-51020D01*
X43349Y-51453D01*
X43357Y-51453D01*
X43357Y-51553D01*
X43349Y-51553D01*
X43349Y-51986D01*
X43411Y-52049D01*
X43545Y-52049D01*
X43644Y-52049D01*
X43736Y-52011D01*
X43799Y-51948D01*
X43861Y-52011D01*
X43931Y-52039D01*
X43931Y-52173D01*
X43959Y-52314D01*
X44038Y-52433D01*
X44227Y-52622D01*
X44227Y-52622D01*
X44347Y-52702D01*
X44488Y-52730D01*
X50984Y-52730D01*
X51125Y-52702D01*
X51244Y-52622D01*
X51371Y-52495D01*
X51394Y-52485D01*
X51501Y-52379D01*
X51558Y-52240D01*
X51559Y-52090D01*
X51501Y-51951D01*
X51395Y-51845D01*
X51256Y-51787D01*
X51106Y-51787D01*
X50967Y-51844D01*
X50860Y-51950D01*
X50850Y-51974D01*
X50831Y-51994D01*
X48753Y-51994D01*
X48806Y-51941D01*
X48844Y-51849D01*
X48844Y-51803D01*
X49283Y-51803D01*
X49283Y-51803D01*
X49398Y-51781D01*
X49398Y-51781D01*
X49495Y-51716D01*
X49849Y-51362D01*
X49877Y-51362D01*
X50016Y-51304D01*
X50123Y-51198D01*
X50181Y-51059D01*
X50181Y-50909D01*
X50123Y-50770D01*
X50017Y-50664D01*
X49878Y-50606D01*
X49728Y-50606D01*
X49589Y-50663D01*
X49482Y-50769D01*
X49425Y-50908D01*
X49425Y-50937D01*
X49159Y-51203D01*
X48844Y-51203D01*
X48844Y-51158D01*
X48806Y-51067D01*
X48736Y-50996D01*
X48644Y-50958D01*
X48545Y-50958D01*
X48087Y-50958D01*
X49730Y-49315D01*
X49962Y-49315D01*
X49982Y-49335D01*
X50121Y-49393D01*
X50271Y-49393D01*
X50410Y-49336D01*
X50517Y-49230D01*
X50574Y-49091D01*
X50574Y-48940D01*
X50517Y-48801D01*
X50411Y-48695D01*
X50272Y-48637D01*
X50122Y-48637D01*
X49983Y-48695D01*
X49962Y-48715D01*
X49606Y-48715D01*
X49491Y-48738D01*
X49394Y-48803D01*
X47239Y-50958D01*
X46954Y-50958D01*
X46873Y-50991D01*
X51621Y-46244D01*
X51649Y-46244D01*
X51788Y-46186D01*
X51895Y-46080D01*
X51952Y-45941D01*
X51952Y-45791D01*
X51895Y-45652D01*
X51789Y-45545D01*
X51650Y-45488D01*
X51499Y-45488D01*
X51360Y-45545D01*
X51254Y-45651D01*
X51196Y-45790D01*
X51196Y-45819D01*
X46087Y-50929D01*
X46067Y-50958D01*
X45954Y-50958D01*
X45862Y-50996D01*
X45799Y-51059D01*
X45736Y-50996D01*
X45730Y-50994D01*
X50035Y-46689D01*
X50106Y-46582D01*
X50106Y-46582D01*
X50131Y-46456D01*
X50131Y-44353D01*
X50180Y-44373D01*
X50330Y-44374D01*
X50469Y-44316D01*
X50576Y-44210D01*
X50633Y-44071D01*
X50633Y-44042D01*
X55439Y-39237D01*
X58858Y-39237D01*
X58897Y-39237D01*
X58956Y-39237D01*
X59371Y-39237D01*
X59391Y-39257D01*
X59530Y-39314D01*
X59681Y-39315D01*
X59820Y-39257D01*
X59926Y-39151D01*
X59984Y-39012D01*
X59984Y-38862D01*
X59950Y-38780D01*
X60715Y-38015D01*
X60744Y-38015D01*
X60883Y-37958D01*
X60989Y-37852D01*
X61047Y-37713D01*
X61047Y-37562D01*
X61047Y-49835D01*
X60975Y-49805D01*
X60875Y-49805D01*
X59694Y-49805D01*
X59602Y-49843D01*
X59532Y-49913D01*
X59494Y-50005D01*
X59494Y-50104D01*
X59494Y-51285D01*
X59532Y-51377D01*
X59602Y-51448D01*
X59694Y-51486D01*
X59793Y-51486D01*
X60974Y-51486D01*
X61066Y-51448D01*
X61137Y-51378D01*
X61175Y-51286D01*
X61175Y-51186D01*
X61175Y-53854D01*
X59425Y-53854D01*
X59425Y-52387D01*
X59425Y-51206D01*
X59387Y-51114D01*
X59334Y-51061D01*
X59334Y-48153D01*
X59277Y-48014D01*
X59171Y-47908D01*
X59032Y-47850D01*
X58881Y-47850D01*
X58742Y-47907D01*
X58722Y-47928D01*
X58469Y-47928D01*
X58469Y-47478D01*
X58489Y-47458D01*
X58547Y-47319D01*
X58547Y-47169D01*
X58489Y-47030D01*
X58383Y-46923D01*
X58244Y-46866D01*
X58094Y-46866D01*
X57955Y-46923D01*
X57849Y-47029D01*
X57791Y-47168D01*
X57791Y-47318D01*
X57848Y-47457D01*
X57869Y-47478D01*
X57869Y-47928D01*
X52990Y-47928D01*
X52970Y-47908D01*
X52831Y-47850D01*
X52681Y-47850D01*
X52563Y-47898D01*
X52563Y-43726D01*
X53688Y-42602D01*
X53716Y-42602D01*
X53855Y-42545D01*
X53961Y-42438D01*
X54019Y-42299D01*
X54019Y-42149D01*
X53962Y-42010D01*
X53856Y-41904D01*
X53717Y-41846D01*
X53566Y-41846D01*
X53427Y-41903D01*
X53321Y-42010D01*
X53263Y-42148D01*
X53263Y-42178D01*
X52051Y-43390D01*
X51986Y-43487D01*
X51963Y-43602D01*
X51963Y-48781D01*
X51943Y-48801D01*
X51885Y-48940D01*
X51885Y-49090D01*
X51943Y-49229D01*
X52049Y-49335D01*
X52188Y-49393D01*
X52338Y-49393D01*
X52477Y-49336D01*
X52584Y-49230D01*
X52641Y-49091D01*
X52641Y-48940D01*
X52584Y-48801D01*
X52563Y-48781D01*
X52563Y-48557D01*
X52574Y-48562D01*
X52574Y-48696D01*
X52632Y-48835D01*
X52738Y-48942D01*
X52877Y-48999D01*
X53027Y-49000D01*
X53166Y-48942D01*
X53187Y-48922D01*
X57836Y-48922D01*
X57856Y-48942D01*
X57995Y-48999D01*
X58145Y-49000D01*
X58284Y-48942D01*
X58391Y-48836D01*
X58448Y-48697D01*
X58448Y-48547D01*
X58441Y-48528D01*
X58722Y-48528D01*
X58742Y-48548D01*
X58881Y-48606D01*
X59031Y-48606D01*
X59170Y-48548D01*
X59276Y-48442D01*
X59334Y-48303D01*
X59334Y-48153D01*
X59334Y-51061D01*
X59316Y-51044D01*
X59225Y-51005D01*
X59125Y-51005D01*
X57944Y-51005D01*
X57852Y-51043D01*
X57782Y-51114D01*
X57744Y-51205D01*
X57744Y-51305D01*
X57744Y-52486D01*
X57782Y-52578D01*
X57852Y-52648D01*
X57944Y-52686D01*
X58043Y-52687D01*
X59224Y-52687D01*
X59316Y-52649D01*
X59387Y-52578D01*
X59425Y-52486D01*
X59425Y-52387D01*
X59425Y-53854D01*
X49262Y-53854D01*
X44411Y-52893D01*
X43091Y-52049D01*
X43186Y-52049D01*
X43249Y-51986D01*
X43249Y-51553D01*
X43249Y-51453D01*
X43249Y-51020D01*
X43186Y-50958D01*
X43053Y-50958D01*
X42953Y-50958D01*
X42861Y-50996D01*
X42791Y-51067D01*
X42753Y-51158D01*
X42753Y-51391D01*
X42816Y-51453D01*
X43249Y-51453D01*
X43249Y-51553D01*
X42816Y-51553D01*
X42753Y-51616D01*
X42753Y-51833D01*
X40830Y-50603D01*
X40830Y-32077D01*
X44904Y-29590D01*
X49215Y-28822D01*
X70192Y-28822D01*
X70192Y-53854D01*
M02*
